<?xml version="1.0" encoding="UTF-8" standalone="no"?>
<!-- Created with Inkscape (http://www.inkscape.org/) -->

<svg
   xmlns:dc="http://purl.org/dc/elements/1.1/"
   xmlns:cc="http://creativecommons.org/ns#"
   xmlns:rdf="http://www.w3.org/1999/02/22-rdf-syntax-ns#"
   xmlns:svg="http://www.w3.org/2000/svg"
   xmlns="http://www.w3.org/2000/svg"
   xmlns:sodipodi="http://sodipodi.sourceforge.net/DTD/sodipodi-0.dtd"
   xmlns:inkscape="http://www.inkscape.org/namespaces/inkscape"
   width="400"
   height="160"
   viewBox="0 0 400 160"
   id="svg4336"
   version="1.1"
   inkscape:version="0.91 r13725"
   sodipodi:docname="tutorial_arrow_left.svg">
  <defs
     id="defs4338">
    <inkscape:path-effect
       tgtlength_rdm="0.3;1"
       tgtlength="100"
       tgtscale="10"
       tgt_places_rdmness="1;1"
       nbtangents="0"
       tremble_frequency="1"
       tremble_size="0.6;618836982"
       parallel_offset="0.6;1"
       ends_tolerance="0.1;1"
       strokeoverlap_rdm="0.3;1"
       strokeoverlap="0.3"
       strokelength_rdm="0.3;1"
       strokelength="100"
       nbiter_approxstrokes="4"
       is_visible="true"
       id="path-effect6375"
       effect="sketch" />
    <inkscape:path-effect
       effect="sketch"
       id="path-effect6369"
       is_visible="true"
       nbiter_approxstrokes="4"
       strokelength="100"
       strokelength_rdm="0.3;1"
       strokeoverlap="0.3"
       strokeoverlap_rdm="0.3;1"
       ends_tolerance="0.1;1"
       parallel_offset="0.6;42583124"
       tremble_size="0.6;1"
       tremble_frequency="1"
       nbtangents="0"
       tgt_places_rdmness="1;1"
       tgtscale="10"
       tgtlength="100"
       tgtlength_rdm="0.3;1" />
    <inkscape:path-effect
       tgtlength_rdm="0.3;1"
       tgtlength="100"
       tgtscale="10"
       tgt_places_rdmness="1;1"
       nbtangents="0"
       tremble_frequency="1"
       tremble_size="0.6;1514296265"
       parallel_offset="0.5;1"
       ends_tolerance="0.1;1"
       strokeoverlap_rdm="0.3;1"
       strokeoverlap="0.3"
       strokelength_rdm="0.3;1"
       strokelength="100"
       nbiter_approxstrokes="4"
       is_visible="true"
       id="path-effect6363"
       effect="sketch" />
    <inkscape:path-effect
       effect="sketch"
       id="path-effect6357"
       is_visible="true"
       nbiter_approxstrokes="4"
       strokelength="100"
       strokelength_rdm="0.3;1"
       strokeoverlap="0.3"
       strokeoverlap_rdm="0.3;1"
       ends_tolerance="0.1;1"
       parallel_offset="0.6;1"
       tremble_size="0.6;1570625061"
       tremble_frequency="1"
       nbtangents="0"
       tgt_places_rdmness="1;1"
       tgtscale="10"
       tgtlength="100"
       tgtlength_rdm="0.3;1" />
    <inkscape:path-effect
       tgtlength_rdm="0.3;1"
       tgtlength="100"
       tgtscale="10"
       tgt_places_rdmness="1;1"
       nbtangents="0"
       tremble_frequency="1"
       tremble_size="0.9;2079157014"
       parallel_offset="0.8;750149994"
       ends_tolerance="0.1;1"
       strokeoverlap_rdm="0.3;1"
       strokeoverlap="0.3"
       strokelength_rdm="0.3;1"
       strokelength="100"
       nbiter_approxstrokes="4"
       is_visible="true"
       id="path-effect6326"
       effect="sketch" />
    <inkscape:path-effect
       effect="sketch"
       id="path-effect6322"
       is_visible="true"
       nbiter_approxstrokes="4"
       strokelength="100"
       strokelength_rdm="0.3;1"
       strokeoverlap="0.3"
       strokeoverlap_rdm="0.3;1"
       ends_tolerance="0.1;1"
       parallel_offset="0.8;1"
       tremble_size="1;576035799"
       tremble_frequency="1"
       nbtangents="0"
       tgt_places_rdmness="1;1"
       tgtscale="10"
       tgtlength="100"
       tgtlength_rdm="0.3;1" />
    <inkscape:path-effect
       tgtlength_rdm="0.3;1"
       tgtlength="100"
       tgtscale="10"
       tgt_places_rdmness="1;1"
       nbtangents="0"
       tremble_frequency="1"
       tremble_size="0.7;769559907"
       parallel_offset="0.8;1"
       ends_tolerance="0.1;1"
       strokeoverlap_rdm="0.3;1"
       strokeoverlap="0.3"
       strokelength_rdm="0.3;1"
       strokelength="100"
       nbiter_approxstrokes="4"
       is_visible="true"
       id="path-effect6318"
       effect="sketch" />
    <inkscape:path-effect
       effect="sketch"
       id="path-effect6314"
       is_visible="true"
       nbiter_approxstrokes="4"
       strokelength="100"
       strokelength_rdm="0.3;1561264387"
       strokeoverlap="0.3"
       strokeoverlap_rdm="0.3;1"
       ends_tolerance="0.1;1"
       parallel_offset="0.8;1"
       tremble_size="0.9;1"
       tremble_frequency="1"
       nbtangents="0"
       tgt_places_rdmness="1;1"
       tgtscale="10"
       tgtlength="100"
       tgtlength_rdm="0.3;1" />
    <inkscape:path-effect
       tgtlength_rdm="0.3;1"
       tgtlength="100"
       tgtscale="10"
       tgt_places_rdmness="1;1"
       nbtangents="0"
       tremble_frequency="1"
       tremble_size="0.6;1"
       parallel_offset="0.6;1"
       ends_tolerance="0.1;1"
       strokeoverlap_rdm="0.3;1"
       strokeoverlap="0.3"
       strokelength_rdm="0.3;1"
       strokelength="100"
       nbiter_approxstrokes="4"
       is_visible="true"
       id="path-effect6310"
       effect="sketch" />
    <inkscape:path-effect
       effect="sketch"
       id="path-effect6296"
       is_visible="true"
       nbiter_approxstrokes="4"
       strokelength="100"
       strokelength_rdm="0.3;1"
       strokeoverlap="0.3"
       strokeoverlap_rdm="0.3;1"
       ends_tolerance="0.1;1"
       parallel_offset="0.6;750149994"
       tremble_size="0.6;2079157014"
       tremble_frequency="1"
       nbtangents="0"
       tgt_places_rdmness="1;1"
       tgtscale="10"
       tgtlength="100"
       tgtlength_rdm="0.3;1" />
    <inkscape:path-effect
       tgtlength_rdm="0.3;1"
       tgtlength="100"
       tgtscale="10"
       tgt_places_rdmness="1;1"
       nbtangents="0"
       tremble_frequency="1"
       tremble_size="0.6;576035799"
       parallel_offset="0.6;1"
       ends_tolerance="0.1;1"
       strokeoverlap_rdm="0.3;1"
       strokeoverlap="0.3"
       strokelength_rdm="0.3;1"
       strokelength="100"
       nbiter_approxstrokes="4"
       is_visible="true"
       id="path-effect6292"
       effect="sketch" />
    <inkscape:path-effect
       effect="sketch"
       id="path-effect6288"
       is_visible="true"
       nbiter_approxstrokes="4"
       strokelength="100"
       strokelength_rdm="0.3;1"
       strokeoverlap="0.3"
       strokeoverlap_rdm="0.3;1"
       ends_tolerance="0.1;1"
       parallel_offset="0.6;1"
       tremble_size="0.6;769559907"
       tremble_frequency="1"
       nbtangents="0"
       tgt_places_rdmness="1;1"
       tgtscale="10"
       tgtlength="100"
       tgtlength_rdm="0.3;1" />
    <inkscape:path-effect
       tgtlength_rdm="0.3;1"
       tgtlength="100"
       tgtscale="10"
       tgt_places_rdmness="1;1"
       nbtangents="0"
       tremble_frequency="1"
       tremble_size="0.6;1"
       parallel_offset="0.6;1"
       ends_tolerance="0.1;1"
       strokeoverlap_rdm="0.3;1"
       strokeoverlap="0.3"
       strokelength_rdm="0.3;1561264387"
       strokelength="100"
       nbiter_approxstrokes="4"
       is_visible="true"
       id="path-effect6284"
       effect="sketch" />
    <inkscape:path-effect
       tgtlength_rdm="0.3;1"
       tgtlength="100"
       tgtscale="10"
       tgt_places_rdmness="1;1"
       nbtangents="0"
       tremble_frequency="1"
       tremble_size="1.9;1"
       parallel_offset="0.8;1"
       ends_tolerance="0.1;1"
       strokeoverlap_rdm="0.3;1"
       strokeoverlap="0.3"
       strokelength_rdm="0.3;1"
       strokelength="100"
       nbiter_approxstrokes="4"
       is_visible="true"
       id="path-effect6271"
       effect="sketch" />
    <inkscape:path-effect
       effect="sketch"
       id="path-effect6250"
       is_visible="true"
       nbiter_approxstrokes="4"
       strokelength="100"
       strokelength_rdm="0.3;1"
       strokeoverlap="0.3"
       strokeoverlap_rdm="0.3;1"
       ends_tolerance="0.1;1"
       parallel_offset="0.6;1"
       tremble_size="0.6;1"
       tremble_frequency="1"
       nbtangents="0"
       tgt_places_rdmness="1;1"
       tgtscale="10"
       tgtlength="100"
       tgtlength_rdm="0.3;1" />
    <inkscape:path-effect
       effect="skeletal"
       id="path-effect5423"
       is_visible="true"
       pattern="m -127.93056,6.6987434 2.71036,-4.83001 2.71035,4.83001 z"
       copytype="repeated"
       prop_scale="1"
       scale_y_rel="false"
       spacing="3.5"
       normal_offset="0"
       tang_offset="0"
       prop_units="false"
       vertical_pattern="false"
       fuse_tolerance="0" />
    <inkscape:path-effect
       effect="sketch"
       id="path-effect5425"
       is_visible="true"
       nbiter_approxstrokes="3"
       strokelength="15"
       strokelength_rdm="0.3;1"
       strokeoverlap="0.3"
       strokeoverlap_rdm="0.3;1"
       ends_tolerance="0.1;1"
       parallel_offset="0.1;1519241579"
       tremble_size="0.3;313929042"
       tremble_frequency="1"
       nbtangents="0"
       tgt_places_rdmness="1;1"
       tgtscale="10"
       tgtlength="100"
       tgtlength_rdm="0.3;1" />
    <inkscape:path-effect
       effect="sketch"
       id="path-effect5116"
       is_visible="true"
       nbiter_approxstrokes="4"
       strokelength="20"
       strokelength_rdm="0.3;1"
       strokeoverlap="0.3"
       strokeoverlap_rdm="0.3;1"
       ends_tolerance="0.1;1"
       parallel_offset="1.2;334524706"
       tremble_size="1.2;1"
       tremble_frequency="1"
       nbtangents="0"
       tgt_places_rdmness="1;1"
       tgtscale="10"
       tgtlength="100"
       tgtlength_rdm="0.3;1" />
  </defs>
  <sodipodi:namedview
     id="base"
     pagecolor="#ffffff"
     bordercolor="#666666"
     borderopacity="1.0"
     inkscape:pageopacity="0.0"
     inkscape:pageshadow="2"
     inkscape:zoom="1.979899"
     inkscape:cx="112.23438"
     inkscape:cy="26.23718"
     inkscape:document-units="px"
     inkscape:current-layer="layer7"
     showgrid="false"
     inkscape:window-width="1920"
     inkscape:window-height="1017"
     inkscape:window-x="1912"
     inkscape:window-y="-8"
     inkscape:window-maximized="1"
     fit-margin-top="0"
     fit-margin-left="0"
     fit-margin-right="0"
     fit-margin-bottom="0"
     units="px"
     inkscape:snap-center="true" />
  <metadata
     id="metadata4341">
    <rdf:RDF>
      <cc:Work
         rdf:about="">
        <dc:format>image/svg+xml</dc:format>
        <dc:type
           rdf:resource="http://purl.org/dc/dcmitype/StillImage" />
        <dc:title />
      </cc:Work>
    </rdf:RDF>
  </metadata>
  <g
     inkscape:label="box"
     inkscape:groupmode="layer"
     id="layer1"
     transform="translate(-277.14285,-163.79079)"
     style="display:none"
     sodipodi:insensitive="true">
    <rect
       style="opacity:0.98000004;fill:#000000;fill-opacity:0.25632911;fill-rule:nonzero;stroke:none;stroke-width:1.5;stroke-linecap:round;stroke-linejoin:round;stroke-miterlimit:4;stroke-dasharray:none;stroke-dashoffset:0;stroke-opacity:1"
       id="rect6252"
       width="80"
       height="80"
       x="277.14285"
       y="243.79079" />
    <rect
       y="243.79079"
       x="357.14285"
       height="80"
       width="80"
       id="rect6256"
       style="opacity:0.98000004;fill:#000000;fill-opacity:0.25632911;fill-rule:nonzero;stroke:none;stroke-width:1.5;stroke-linecap:round;stroke-linejoin:round;stroke-miterlimit:4;stroke-dasharray:none;stroke-dashoffset:0;stroke-opacity:1" />
    <rect
       style="opacity:0.98000004;fill:#000000;fill-opacity:0.25632911;fill-rule:nonzero;stroke:none;stroke-width:1.5;stroke-linecap:round;stroke-linejoin:round;stroke-miterlimit:4;stroke-dasharray:none;stroke-dashoffset:0;stroke-opacity:1"
       id="rect6258"
       width="80"
       height="80"
       x="437.14285"
       y="243.79079" />
    <rect
       y="243.79079"
       x="517.14282"
       height="80"
       width="80"
       id="rect6260"
       style="opacity:0.98000004;fill:#000000;fill-opacity:0.25632911;fill-rule:nonzero;stroke:none;stroke-width:1.5;stroke-linecap:round;stroke-linejoin:round;stroke-miterlimit:4;stroke-dasharray:none;stroke-dashoffset:0;stroke-opacity:1" />
    <rect
       style="opacity:0.98000004;fill:#000000;fill-opacity:0.25632911;fill-rule:nonzero;stroke:none;stroke-width:1.5;stroke-linecap:round;stroke-linejoin:round;stroke-miterlimit:4;stroke-dasharray:none;stroke-dashoffset:0;stroke-opacity:1"
       id="rect6262"
       width="80"
       height="80"
       x="597.14282"
       y="243.79079" />
    <rect
       y="163.79079"
       x="277.14285"
       height="80"
       width="80"
       id="rect6298"
       style="opacity:0.98000004;fill:#000000;fill-opacity:0.25632911;fill-rule:nonzero;stroke:none;stroke-width:1.5;stroke-linecap:round;stroke-linejoin:round;stroke-miterlimit:4;stroke-dasharray:none;stroke-dashoffset:0;stroke-opacity:1" />
    <rect
       style="opacity:0.98000004;fill:#000000;fill-opacity:0.25632911;fill-rule:nonzero;stroke:none;stroke-width:1.5;stroke-linecap:round;stroke-linejoin:round;stroke-miterlimit:4;stroke-dasharray:none;stroke-dashoffset:0;stroke-opacity:1"
       id="rect6300"
       width="80"
       height="80"
       x="357.14285"
       y="163.79079" />
    <rect
       y="163.79079"
       x="437.14285"
       height="80"
       width="80"
       id="rect6302"
       style="opacity:0.98000004;fill:#000000;fill-opacity:0.25632911;fill-rule:nonzero;stroke:none;stroke-width:1.5;stroke-linecap:round;stroke-linejoin:round;stroke-miterlimit:4;stroke-dasharray:none;stroke-dashoffset:0;stroke-opacity:1" />
    <rect
       style="opacity:0.98000004;fill:#000000;fill-opacity:0.25632911;fill-rule:nonzero;stroke:none;stroke-width:1.5;stroke-linecap:round;stroke-linejoin:round;stroke-miterlimit:4;stroke-dasharray:none;stroke-dashoffset:0;stroke-opacity:1"
       id="rect6304"
       width="80"
       height="80"
       x="517.14282"
       y="163.79079" />
    <rect
       y="163.79079"
       x="597.14282"
       height="80"
       width="80"
       id="rect6306"
       style="opacity:0.98000004;fill:#000000;fill-opacity:0.25632911;fill-rule:nonzero;stroke:none;stroke-width:1.5;stroke-linecap:round;stroke-linejoin:round;stroke-miterlimit:4;stroke-dasharray:none;stroke-dashoffset:0;stroke-opacity:1" />
  </g>
  <g
     inkscape:groupmode="layer"
     id="layer7"
     inkscape:label="normal_fill"
     style="display:inline"
     transform="translate(0,80)" />
  <g
     inkscape:groupmode="layer"
     id="layer5"
     inkscape:label="normal"
     style="display:inline"
     transform="translate(0,80)">
    <path
       style="display:inline;opacity:0.98000004;fill:none;fill-opacity:1;fill-rule:nonzero;stroke:#30618c;stroke-width:1.5;stroke-linecap:round;stroke-miterlimit:4;stroke-dasharray:none;stroke-dashoffset:0;stroke-opacity:1"
       d="m 317.40207,256.36966 c 0.0369,2.10892 0.0721,4.21893 0.10584,6.32992 11.54347,-4.32925 23.03597,-8.6255 34.50372,-12.90923 -0.0295,12.42863 -0.0843,24.8701 -0.13735,37.30316 m -0.139,-20.62982 c -0.0422,17.61664 -0.007,35.28243 0.0688,52.968 -5.84436,-2.17992 -11.68358,-4.35736 -17.51928,-6.53361 m 13.69444,6.08994 c -10.50759,-3.92386 -20.9724,-7.85134 -31.41368,-11.78986 -0.0489,4.27731 -0.0942,8.55299 -0.13719,12.82661 -6.56203,-6.76594 -13.11257,-13.54179 -19.66318,-20.33201 m 12.33901,12.25539 c -8.78684,-8.99916 -17.6159,-18.02669 -26.45678,-27.06052 11.56902,-11.78053 23.11792,-23.57179 34.71411,-35.32488 0.0377,2.52495 0.0766,5.05078 0.11673,7.57768 m -0.95534,0.79309 c 0.01,1.15058 0.0203,2.30128 0.0313,3.45208 11.46536,-4.32562 22.99758,-8.63906 34.57899,-12.95533 0.10214,14.79975 0.2761,29.59535 0.49065,44.36032 m -0.0621,-20.78036 c -0.0598,16.01343 -0.0116,31.90448 0.10369,47.71054 -8.88837,-3.43582 -17.75267,-6.90215 -26.60171,-10.39093 m 15.60847,6.62628 c -8.06121,-2.99763 -16.0934,-5.99924 -24.10262,-9.00479 -0.0411,4.28805 -0.0764,8.57511 -0.10677,12.86118 -8.35391,-8.61511 -16.66854,-17.23794 -24.96057,-25.86837 m 12.28537,11.48502 c -7.01115,-7.20149 -14.05317,-14.37619 -21.11949,-21.52723 9.29779,-9.49167 18.55275,-18.94165 27.78024,-28.35723 m -10.47274,10.71795 c 5.6867,-5.7663 11.35718,-11.55083 17.01615,-17.35043 0.0512,4.28379 0.0992,8.56334 0.1446,12.83911 11.47797,-4.33763 22.9352,-8.70611 34.3881,-13.09444 -0.0217,6.01119 -0.0445,12.01755 -0.0663,18.02038 m -34.15911,-9.84047 c 0.0143,1.47457 0.0292,2.94874 0.0446,4.42255 11.47726,-4.23029 22.99439,-8.48548 34.53919,-12.73765 0.0648,16.6407 0.18011,33.28691 0.31587,50.00758 m -0.58528,-24.7077 c 0.0903,15.31984 0.0988,30.60916 0.082,45.88418 -11.35154,-4.24709 -22.71896,-8.50315 -34.0743,-12.76014 m 18.39036,6.48426 c -6.44728,-2.39983 -12.91161,-4.81378 -19.38791,-7.23906 -0.0455,4.28951 -0.0956,8.57467 -0.14907,12.85613 -11.5545,-11.84166 -23.15916,-23.73791 -34.74509,-35.65085 1.59254,-1.648 3.18543,-3.29632 4.77887,-4.94486 m 7.28825,18.31562 c -4.046,-4.15509 -8.09664,-8.30063 -12.14948,-12.43602 11.6046,-11.72737 23.19144,-23.37302 34.81601,-34.92274 0.0717,4.35734 0.14594,8.72117 0.22371,13.09173 1.16652,-0.41 2.33332,-0.81943 3.50045,-1.2283 m -3.15391,-10.81078 c 0.0282,3.76688 0.0582,7.53295 0.0892,11.29903 11.44981,-4.22253 22.91137,-8.44491 34.36192,-12.6381 -0.032,8.55639 -0.0694,17.12674 -0.11948,25.72068 m 0.2812,-16.94489 c 0.0144,20.45279 -0.0484,40.98606 -0.17051,61.52443 -5.48808,-2.0306 -10.98094,-4.0608 -16.47816,-6.09231 m 16.4424,5.16665 c -8.6e-4,0.42508 -0.002,0.85015 -0.002,1.2752 -11.51885,-4.25132 -22.99812,-8.51572 -34.44777,-12.77646 -0.0355,4.30267 -0.0674,8.6058 -0.0961,12.91008 -9.41874,-9.66098 -18.80547,-19.31036 -28.17365,-28.92552 m 17.57366,17.84442 c -7.90846,-8.08064 -15.83439,-16.21053 -23.76845,-24.38004 11.55038,-11.8902 23.08354,-23.86434 34.62828,-35.89274 0.0509,4.23292 0.10267,8.46217 0.15568,12.68828 0.26698,-0.10401 0.53397,-0.20802 0.80096,-0.31205"
       id="rect4280"
       inkscape:connector-curvature="0"
       sodipodi:nodetypes="cccccccc"
       inkscape:path-effect="#path-effect6250"
       inkscape:original-d="m 316.95729,248.89977 0.15613,12.87542 34.49063,-12.87542 0,70.81115 -34.49063,-12.87544 -0.15613,12.87544 -34.64688,-35.40558 z"
       transform="translate(-277.14285,-243.79079)" />
    <path
       inkscape:original-d="m 120.19462,5.10898 0.15613,12.87542 34.49063,-12.87542 0,70.81115 -34.49063,-12.87544 -0.15613,12.87544 -34.646885,-35.40558 z"
       inkscape:path-effect="#path-effect6284"
       sodipodi:nodetypes="cccccccc"
       inkscape:connector-curvature="0"
       id="path6282"
       d="m 120.6394,12.578873 c 0.0369,2.10892 0.0721,4.218929 0.10584,6.329921 11.54348,-4.329255 23.03598,-8.625501 34.50372,-12.9092245 -0.0286,12.0768445 -0.0812,24.1658015 -0.13283,36.2473825 m -0.14352,-20.374251 c -0.0428,17.882829 -0.006,35.816324 0.0723,53.76974 -6.10515,-2.27715 -12.20476,-4.55164 -18.3007,-6.824971 m 14.01594,6.209359 c -10.35459,-3.866725 -20.6676,-7.73692 -30.95748,-11.617742 -0.0491,4.277456 -0.0947,8.55329 -0.13782,12.827078 C 109.99283,66.264712 100.34618,56.271885 90.687837,46.2433 M 105.00193,60.656995 C 98.642461,54.143856 92.260886,47.61586 85.86872,41.081367 97.449297,29.307581 108.99549,17.512702 120.57466,5.7456337 c 0.0599,4.3008493 0.12202,8.6035773 0.18755,12.9090433 3.05221,-1.12525 6.10636,-2.248933 9.16298,-3.370677 M 119.7603,14.142733 c 0.01,1.150576 0.0203,2.301272 0.0313,3.452075 11.46536,-4.32562 22.99762,-8.6390833 34.57905,-12.9553777 0.12209,17.6845777 0.3467,35.3632517 0.62048,52.9908977 m -0.19196,-22.944243 c -0.0517,13.850612 -0.0226,27.609697 0.0608,41.301421 -11.42273,-4.391689 -22.80253,-8.836615 -34.15805,-13.317801 -0.002,3.952991 -0.002,7.902099 -1.5e-4,11.847921 m 7.25484,-8.3076 c -2.72359,-1.01279 -5.44387,-2.026035 -8.16107,-3.039735 -0.0577,4.290664 -0.10856,8.580332 -0.15345,12.869008 C 108.12058,64.225373 96.68793,52.396787 85.301045,40.553916 92.049452,33.729544 98.813056,26.900429 105.58362,20.066643 M 90.267097,35.624967 C 100.40155,25.287634 110.47237,15.005503 120.49901,4.7693241 c 0.0304,4.3168519 0.057,8.6377639 0.0801,12.9624929 6.45985,-2.375657 12.91083,-4.741319 19.35508,-7.098016 m -19.6368,2.960616 c 0.0225,1.469757 0.0445,2.938916 0.066,4.407495 11.52787,-4.274077 23.02039,-8.5887489 34.49398,-12.9330481 -0.0313,16.4383821 -0.0969,32.8231451 -0.15678,49.1809901 m 0.37979,-25.238136 c -0.0369,15.541943 -0.008,31.039112 0.0615,46.547265 -11.44146,-4.250777 -22.85694,-8.494631 -34.25865,-12.703654 -0.016,3.676277 -0.0307,7.35564 -0.0445,11.038821 m 13.32879,-5.704498 c -4.57344,-1.709591 -9.15532,-3.422328 -13.74377,-5.137677 -0.0398,4.294224 -0.0846,8.586454 -0.13321,12.877048 C 108.75489,64.122476 97.163515,52.291725 85.587384,40.457138 c 0.544319,-0.559096 1.088673,-1.118201 1.633068,-1.677312 m 9.836274,13.400216 C 93.065802,48.086175 89.06312,43.982564 85.051588,39.870808 96.635792,28.069435 108.14709,16.200968 119.65423,4.303224 c 0.0185,1.9157148 0.0369,3.831031 0.0554,5.746009 m -9.91445,4.916265 c 3.24369,-3.288123 6.48448,-6.5702738 9.72356,-9.8461442 0.0673,4.3080558 0.13305,8.6215612 0.19833,12.9407672 11.53473,-4.21347 23.06537,-8.3803419 34.61469,-12.4947636 0.0151,3.5797573 0.0317,7.1638516 0.0504,10.7524216 M 120.27072,6.6699555 c 0.0282,3.7668815 0.0582,7.5329475 0.0892,11.2990235 11.44982,-4.222544 22.91142,-8.4449706 34.36199,-12.6381776 -0.058,15.4866036 -0.13323,31.0190006 -0.27051,46.6542916 m 0.43215,-21.802194 c 0.0106,15.111629 -0.0209,30.267152 -0.0874,45.436218 -7.87559,-2.922028 -15.7618,-5.839932 -23.6574,-8.758812 m 15.69892,6.189566 c -8.90278,-3.284302 -17.78173,-6.576743 -26.64143,-9.869619 -0.0412,4.302415 -0.0784,8.604741 -0.11217,12.907692 C 110.50682,66.276621 100.96579,56.471741 91.446974,46.696935 M 107.36469,62.819417 C 100.17592,55.474127 92.972691,48.08818 85.762042,40.668775 97.314667,28.789231 108.84826,16.823909 120.39169,4.802355 c 0,-4.173e-4 0.004,0.3013385 0.004,0.3009212 M 103.91978,21.332526 c 5.42942,-5.523153 10.86138,-11.044891 16.29642,-16.5615917 0.0568,4.3076497 0.11446,8.6168417 0.17319,12.9281887 11.516,-4.235938 23.04041,-8.4542544 34.57535,-12.640609 0.0267,8.694105 0.0587,17.40398 0.0965,26.134595"
       style="display:inline;opacity:0.98000004;fill:none;fill-opacity:1;fill-rule:nonzero;stroke:#30618c;stroke-width:1.5;stroke-linecap:round;stroke-miterlimit:4;stroke-dasharray:none;stroke-dashoffset:0;stroke-opacity:1" />
    <path
       style="display:inline;opacity:0.98000004;fill:none;fill-opacity:1;fill-rule:nonzero;stroke:#30618c;stroke-width:1.5;stroke-linecap:round;stroke-miterlimit:4;stroke-dasharray:none;stroke-dashoffset:0;stroke-opacity:1"
       d="m 199.98304,11.655459 c 0.0149,2.114081 0.0315,4.228536 0.0497,6.343323 11.45368,-4.307259 22.96161,-8.6033586 34.4986,-12.8965938 0.0406,12.4190118 0.11094,24.8409578 0.18493,37.2572368 m 0.35016,-19.39113 c 0.0869,17.755585 0.10739,35.407216 0.13497,53.041405 -5.86153,-2.198169 -11.72217,-4.398537 -17.57864,-6.597232 m 14.22667,5.109782 c -10.51127,-3.901894 -21.0089,-7.795661 -31.51362,-11.681906 -0.0733,4.297434 -0.14758,8.595982 -0.22412,12.89561 -6.63563,-6.708916 -13.28197,-13.412644 -19.95148,-20.11155 m 12.63604,12.542262 C 183.99457,59.07435 175.13876,50.024013 166.25275,40.997102 177.76292,29.22561 189.22172,17.493955 200.68216,5.7609976 c 0.017,2.528016 0.0341,5.0560014 0.0514,7.5838114 m -1.24979,1.276123 c 0.0137,1.15912 0.0277,2.317733 0.042,3.475858 11.49987,-4.247761 23.03081,-8.5506939 34.59159,-12.8867311 0.0772,14.7758631 0.19803,29.5033861 0.36023,44.2215051 m 0.71066,-21.624677 c -0.005,15.928212 -0.0389,31.896596 -0.10552,47.883972 -8.99735,-3.327202 -18.00627,-6.647589 -27.02726,-9.965712 m 16.32298,7.279209 c -7.98651,-3.030564 -16.00113,-6.047163 -24.03508,-9.056346 -0.0535,4.286226 -0.11179,8.574312 -0.17386,12.863434 -8.44287,-8.606573 -16.91517,-17.205002 -25.39266,-25.813397 m 11.53561,10.537254 c -7.06768,-7.146819 -14.08337,-14.314045 -21.05562,-21.490026 9.42265,-9.524764 18.92183,-19.064954 28.47755,-28.593326 m -11.098,10.419914 c 5.634,-5.773117 11.28593,-11.546728 16.95105,-17.3188624 0.0545,4.2983634 0.11264,8.5971424 0.17382,12.8966304 11.523,-4.269845 23.07053,-8.5338911 34.62609,-12.7852698 0.029,6.0788118 0.0599,12.1607128 0.0908,18.2465278 m -33.81982,-9.916476 c 0.015,1.46914 0.0299,2.938098 0.0445,4.406889 11.47038,-4.272306 22.92563,-8.5563207 34.35617,-12.8430709 -0.0897,16.5939589 -0.2245,33.1829199 -0.42814,49.7890409 m 0.0793,-24.897721 c -0.0459,15.336327 -0.0818,30.642939 -0.1364,45.947162 -11.38146,-4.223972 -22.77463,-8.449441 -34.19372,-12.662861 m 19.5345,6.811451 c -6.46739,-2.426757 -12.94248,-4.857155 -19.4227,-7.291907 -0.0479,4.283637 -0.0978,8.5656 -0.14908,12.84572 -11.54592,-11.846848 -23.11194,-23.720983 -34.66318,-35.632105 1.59733,-1.647748 3.19495,-3.296204 4.79294,-4.945393 m 7.60676,18.651354 c -4.06703,-4.141725 -8.14617,-8.282636 -12.23694,-12.420935 11.49706,-11.735638 22.90054,-23.450274 34.22129,-35.1029046 -0.007,4.3305953 -0.0201,8.6653796 -0.0384,13.0050746 1.13883,-0.418889 2.27721,-0.83737 3.41515,-1.255426 M 200.55668,6.8105233 c 0.0386,3.7454697 0.0744,7.4935927 0.10718,11.2443917 11.45556,-4.272603 22.8788,-8.5164727 34.26041,-12.7307891 -0.0797,8.5417641 -0.17938,17.0976671 -0.30202,25.6679801 m 0.5238,-16.922938 c -0.0365,20.43065 -0.0324,40.88446 -0.0299,61.259576 -5.45275,-2.076917 -10.90563,-4.160166 -16.35961,-6.252072 m 16.49735,5.366251 c -8e-5,0.424073 -1.6e-4,0.848157 -2.3e-4,1.272252 -11.49897,-4.27908 -22.99498,-8.548676 -34.48924,-12.803627 -0.0511,4.304706 -0.10205,8.611204 -0.1528,12.919714 -9.48848,-9.647625 -18.97533,-19.275128 -28.46219,-28.875525 m 17.35342,17.9977 c -7.95738,-8.136456 -15.90957,-16.268973 -23.86447,-24.406935 11.52006,-11.844295 23.03441,-23.700127 34.51876,-35.596428 0.0353,4.2672575 0.0685,8.531781 0.0992,12.793061 0.2655,-0.101665 0.53099,-0.203344 0.79647,-0.305038"
       id="path6286"
       inkscape:connector-curvature="0"
       sodipodi:nodetypes="cccccccc"
       inkscape:path-effect="#path-effect6288"
       inkscape:original-d="m 200.19462,5.10898 0.15613,12.87542 34.49063,-12.87542 0,70.81115 -34.49063,-12.87544 -0.15613,12.87544 -34.64689,-35.40558 z" />
    <path
       inkscape:original-d="m 280.19459,5.10898 0.15613,12.87542 34.49063,-12.87542 0,70.81115 -34.49063,-12.87544 -0.15613,12.87544 -34.64689,-35.40558 z"
       inkscape:path-effect="#path-effect6292"
       sodipodi:nodetypes="cccccccc"
       inkscape:connector-curvature="0"
       id="path6290"
       d="m 280.89248,12.621065 c 0.0337,2.11001 0.0666,4.220147 0.0987,6.330319 11.53414,-4.334007 23.04288,-8.666823 34.545,-13.0162626 0.005,12.3621266 0.004,24.7072256 0.015,37.0168276 m -0.68635,-19.843045 c -0.0231,17.727441 0.0503,35.321556 0.19985,52.846595 -5.81823,-2.236921 -11.62686,-4.482549 -17.42681,-6.734009 m 13.80849,5.844562 c -10.48041,-3.843883 -20.93941,-7.720699 -31.3876,-11.611257 -0.0515,4.295775 -0.10142,8.589516 -0.15034,12.882315 -6.57506,-6.723886 -13.14533,-13.452298 -19.7172,-20.173709 m 12.61904,12.364276 c -8.90253,-8.999766 -17.75779,-18.041514 -26.58598,-27.103604 11.58556,-11.817368 23.21712,-23.669327 34.84983,-35.5078852 0.0433,2.5119149 0.0866,5.0241412 0.12982,7.5368492 m -1.29824,0.802225 c 0.0157,1.153929 0.0313,2.307678 0.0467,3.461249 11.51197,-4.296188 23.00674,-8.6125612 34.49193,-12.9492993 -0.0141,14.7750163 -0.0422,29.5202963 -0.0708,44.2355233 m 0.96481,-21.181713 c 0.068,16.044868 0.0825,32.011596 0.0894,47.958417 -8.95326,-3.351498 -17.90919,-6.710141 -26.85787,-10.063407 m 15.61631,6.54775 c -8.06201,-2.986379 -16.09906,-5.980494 -24.11726,-8.980043 -0.0456,4.291051 -0.0864,8.580739 -0.12335,12.869354 -8.37232,-8.607994 -16.71351,-17.224423 -25.04045,-25.842924 m 11.5808,12.054802 c -7.0545,-7.164747 -14.09481,-14.363657 -21.12617,-21.589762 9.34419,-9.591292 18.70414,-19.230495 28.06756,-28.90131 m -10.81906,10.377639 c 5.61846,-5.783358 11.26433,-11.564317 16.93019,-17.342746 0.0549,4.2950253 0.11535,8.590762 0.18034,12.88723 11.53392,-4.278479 23.10475,-8.5509799 34.68661,-12.8170458 0.0419,6.0715608 0.0866,12.1446908 0.13082,18.2194438 m -33.55909,-9.716507 c 0.0213,1.469141 0.0422,2.938203 0.0629,4.407202 11.52059,-4.270558 23.01842,-8.5455086 34.5052,-12.8154867 -0.0136,16.6166287 -0.0474,33.2423407 -0.0725,49.9002597 m -0.54219,-25.350955 c 0.0817,15.251757 0.0429,30.522688 -0.065,45.785941 -11.42365,-4.256395 -22.89064,-8.517599 -34.3756,-12.796917 m 18.82922,7.467755 c -6.47031,-2.403079 -12.94745,-4.82576 -19.42926,-7.265699 -0.0489,4.280421 -0.0996,8.55421 -0.15161,12.821925 -11.54877,-11.894569 -23.11651,-23.879037 -34.67403,-35.921636 1.59647,-1.665937 3.19313,-3.332985 4.79006,-5.001062 m 7.64365,18.909713 c -4.06702,-4.152652 -8.13358,-8.313345 -12.19922,-12.481287 11.56832,-11.8197 23.14399,-23.697703 34.73758,-35.6159731 0.0636,4.261547 0.1285,8.5203731 0.19475,12.7767961 1.16319,-0.442893 2.3265,-0.885985 3.48993,-1.329269 M 280.30354,6.6604675 c 0.0435,3.7245905 0.0852,7.4583135 0.12515,11.2003905 11.47893,-4.301182 22.93848,-8.5126654 34.37635,-12.6618244 -0.0408,8.5868324 -0.092,17.2034814 -0.15429,25.8408894 m 0.2891,-17.786326 c 0.12018,20.541278 0.0783,41.143019 0.0118,61.829169 -5.4723,-1.988683 -10.94659,-3.970574 -16.4197,-5.945126 m 15.93435,6.172489 c -0.002,0.424887 -0.004,0.849736 -0.006,1.274548 -11.55064,-4.258318 -23.06415,-8.547559 -34.56347,-12.853124 -0.0529,4.287004 -0.10407,8.57201 -0.15448,12.855645 -9.48739,-9.726285 -18.96724,-19.466291 -28.4706,-29.200269 m 17.86051,17.243063 c -7.88719,-8.144427 -15.79902,-16.275668 -23.71863,-24.406266 11.57141,-11.833577 23.12632,-23.665794 34.71663,-35.5353254 0.0628,4.2742157 0.12797,8.5459104 0.19646,12.8144044 0.268,-0.101186 0.53602,-0.202387 0.80405,-0.303601"
       style="display:inline;opacity:0.98000004;fill:none;fill-opacity:1;fill-rule:nonzero;stroke:#30618c;stroke-width:1.5;stroke-linecap:round;stroke-miterlimit:4;stroke-dasharray:none;stroke-dashoffset:0;stroke-opacity:1" />
    <path
       style="display:inline;opacity:0.98000004;fill:none;fill-opacity:1;fill-rule:nonzero;stroke:#30618c;stroke-width:1.5;stroke-linecap:round;stroke-miterlimit:4;stroke-dasharray:none;stroke-dashoffset:0;stroke-opacity:1"
       d="m 360.26427,11.889866 c 0.0154,2.120825 0.0315,4.240256 0.0484,6.358337 11.446,-4.288178 22.91579,-8.6217315 34.38498,-12.9924911 -0.028,12.3405481 -0.0566,24.6429841 -0.11111,36.9157791 m -0.67804,-18.875078 c 0.007,17.743984 0.005,35.337454 -0.001,52.856656 -5.87342,-2.238995 -11.74735,-4.48735 -17.62159,-6.741655 m 15.6293,5.049874 c -10.39992,-3.929076 -20.8264,-7.840725 -31.26261,-11.744189 -0.0469,4.290809 -0.0952,8.58283 -0.14405,12.875536 -6.57486,-6.72409 -13.15202,-13.444887 -19.7214,-20.16794 m 10.38721,11.640461 c -8.896,-9.025864 -17.73784,-18.05923 -26.54254,-27.089746 11.61622,-11.776195 23.29559,-23.547544 35.00038,-35.2910924 0.0543,2.5264013 0.10916,5.0534488 0.1645,7.5812244 m 1.06523,2.861635 c 0.0106,1.15847 0.0213,2.316381 0.0319,3.473749 11.46089,-4.25581 22.91936,-8.572987 34.3609,-12.9320085 -0.0669,14.7480895 -0.15847,29.4350745 -0.3004,44.0954045 m 0.49654,-22.63709 c 0.0471,15.98056 0.0276,31.953718 -0.0267,47.933712 -8.98993,-3.331626 -17.99232,-6.660798 -27.0003,-9.984455 m 16.3436,7.295098 c -8.06604,-2.993213 -16.11394,-5.997334 -24.15069,-9.011441 -0.0549,4.283762 -0.10695,8.56502 -0.15711,12.84389 -8.40947,-8.63531 -16.80385,-17.289382 -25.20242,-25.959669 m 10.68503,12.322151 c -6.98852,-7.180285 -14.00704,-14.360395 -21.0427,-21.537654 9.33849,-9.526458 18.64678,-19.047893 27.95499,-28.558043 m -9.67431,10.310357 c 5.69658,-5.821666 11.38055,-11.630392 17.05835,-17.4327879 0.0612,4.2823151 0.12066,8.5664109 0.17934,12.8513009 11.51585,-4.311582 23.02536,-8.616669 34.55094,-12.9383014 0.0142,6.0441264 0.0323,12.0842204 0.057,18.1175074 m -34.53157,-9.948615 c 0.0127,1.459178 0.026,2.919424 0.04,4.380695 11.46475,-4.335225 22.97205,-8.5986294 34.50467,-12.8147791 0.0483,16.6893851 0.14288,33.4651031 0.24116,50.2664931 m -0.10584,-25.166296 c 0.0337,15.289039 -0.013,30.608193 -0.11814,45.954943 C 383.63459,71.861019 372.17651,67.687982 360.6926,63.53098 m 19.34373,6.980009 c -6.46805,-2.384911 -12.94351,-4.796405 -19.42392,-7.229722 -0.048,4.284527 -0.098,8.560668 -0.14924,12.829558 -11.54591,-11.890049 -23.11116,-23.887418 -34.66201,-35.927527 1.59738,-1.665592 3.19505,-3.332002 4.79307,-4.999058 m 7.31617,18.227754 c -4.08938,-4.164921 -8.16647,-8.32679 -12.23278,-12.48593 11.56644,-11.79474 23.21951,-23.567545 34.92453,-35.3258514 0.0926,4.3031267 0.18872,8.6072334 0.28774,12.9121884 1.17264,-0.428903 2.34551,-0.857735 3.51862,-1.286499 M 360.26136,7.2089777 c 0.0456,3.7517813 0.0923,7.5012513 0.14025,11.2486703 11.50506,-4.283677 23.02264,-8.589371 34.55305,-12.9079178 0.0232,8.4696708 0.0525,16.9331918 0.0881,25.3935958 M 394.62569,14.03166 c -0.0731,20.414325 -0.0639,40.934601 -0.0566,61.439483 -5.45139,-2.040105 -10.90292,-4.081449 -16.35652,-6.126801 m 16.60541,4.662659 c 0.002,0.424768 0.003,0.84951 0.004,1.274229 -11.45618,-4.26104 -22.98022,-8.542546 -34.55377,-12.83147 -0.0789,4.292824 -0.16378,8.58474 -0.25397,12.876308 -9.61318,-9.7012 -19.27907,-19.405893 -28.97283,-29.096426 M 349.95282,64.3628 c -7.94886,-8.149196 -15.8845,-16.25617 -23.81192,-24.335021 11.56006,-11.758261 23.13753,-23.45695 34.71701,-35.139536 0.06,4.3228089 0.12008,8.646706 0.18006,12.970927 0.0147,-0.0053 0.78763,-0.287107 0.80231,-0.292457"
       id="path6294"
       inkscape:connector-curvature="0"
       sodipodi:nodetypes="cccccccc"
       inkscape:path-effect="#path-effect6296"
       inkscape:original-d="m 360.19459,5.10898 0.15613,12.87542 34.49063,-12.87542 0,70.81115 -34.49063,-12.87544 -0.15613,12.87544 -34.64689,-35.40558 z" />
  </g>
  <g
     inkscape:groupmode="layer"
     id="layer8"
     inkscape:label="hovered_fill"
     transform="translate(0,80)"
     style="display:inline" />
  <g
     inkscape:groupmode="layer"
     id="layer6"
     inkscape:label="hovered"
     transform="translate(0,80)"
     style="display:inline">
    <path
       inkscape:original-d="m 39.827016,-72.526395 0.145549,12.00283 32.15314,-12.00283 0,66.0121552 L 39.972565,-18.517089 39.827016,-6.5142398 7.5282151,-39.520322 Z"
       inkscape:path-effect="#path-effect6310"
       sodipodi:nodetypes="cccccccc"
       inkscape:connector-curvature="0"
       id="path6308"
       d="m 40.271794,-65.056502 c 0.03182,1.819229 0.06241,3.639269 0.09186,5.46005 10.763421,-4.037325 21.482,-8.045544 32.176982,-12.041251 -0.02691,13.549224 -0.08689,27.115983 -0.144696,40.672749 m -0.139009,-20.629814 c -0.03567,14.899884 -0.01606,29.834935 0.03678,44.7873774 -8.389833,-3.1302849 -16.767621,-6.2542654 -25.138181,-9.3758214 m 13.694435,6.089943 c -7.159613,-2.673624 -14.299369,-5.348925 -21.425351,-8.028258 -0.05162,3.989691 -0.09942,7.978264 -0.144295,11.9653761 C 30.021389,-15.676009 20.794617,-25.211898 11.567719,-34.776302 m 12.339004,12.255391 C 18.564448,-27.99228 13.206566,-33.474132 7.8399092,-38.961512 18.641822,-49.933516 29.408651,-60.927622 40.194996,-71.904216 c 0.05373,4.007554 0.108788,8.01629 0.166119,12.026906 4.319109,-1.597431 8.641227,-3.192379 12.967811,-4.783788 m -13.936234,1.168456 c 0.0074,0.860572 0.01505,1.72121 0.02307,2.581911 10.685362,-4.033008 21.429205,-8.055123 32.217192,-12.078509 0.09799,15.920586 0.281809,31.838701 0.512599,47.721366 m -0.06208,-20.780357 c -0.0496,13.282017 -0.02489,26.479842 0.05076,39.6148136 -10.652331,-4.0894566 -21.266612,-8.2258576 -31.857925,-12.3954276 -9.08e-4,0.830811 -0.0017,1.661441 -0.0024,2.491897 m 13.268994,3.211779 c -4.71923,-1.754885 -9.428517,-3.511136 -14.129073,-5.268743 -0.04769,3.998965 -0.08982,7.997069 -0.127018,11.994315 -10.722726,-11.016277 -21.372398,-22.04525 -31.9839867,-33.086668 0.342429,-0.346207 0.6848954,-0.692425 1.0273981,-1.038656 M 18.590167,-29.039905 C 15.038705,-32.687781 11.479323,-36.328786 7.9128729,-39.963324 18.671351,-50.943067 29.365328,-61.863798 40.018323,-72.736691 c 0.01393,2.946792 0.02639,5.895309 0.03752,8.845473 M 35.60883,-68.20641 c 1.412572,-1.432343 2.824143,-2.86581 4.234784,-4.300355 0.05761,4.005558 0.11154,8.006852 0.162359,12.004261 10.724298,-4.011047 21.423164,-8.053844 32.109893,-12.119504 -0.03592,13.189351 -0.08816,26.347967 -0.135994,39.489703 M 40.168837,-64.589363 c 0.01145,1.182099 0.02327,2.363938 0.03547,3.545543 10.697662,-3.942484 21.430221,-7.90718 32.187796,-11.87147 0.06171,17.766431 0.183363,35.533832 0.328312,53.386104 m -0.585274,-24.707695 c 0.07422,12.592887 0.0932,25.165156 0.08827,37.7258053 -10.7222,-4.0104553 -21.464202,-8.0305333 -32.202394,-12.0534543 -0.0471,3.377842 -0.09386,6.755435 -0.139682,10.1329556 m 9.0009,-7.2198336 c -3.138105,-1.168076 -6.280248,-2.339498 -9.425844,-3.513944 -0.03454,4.005947 -0.07395,8.007631 -0.117239,12.0055926 C 28.592973,-18.173283 17.789265,-29.241908 6.9838412,-40.334939 12.03483,-45.558224 17.085439,-50.786921 22.141494,-56.017824 M 8.5990922,-37.702204 C 8.0023027,-38.315085 7.4054122,-38.927757 6.8084285,-39.54022 17.641194,-50.517422 28.444031,-61.427305 39.26189,-72.25837 c 0.06193,4.045381 0.124869,8.096087 0.189616,12.15232 7.161317,-2.556637 14.329163,-5.093275 21.508972,-7.608523 M 39.903114,-70.96542 c 0.02602,3.474315 0.05352,6.947937 0.082,10.421516 10.673304,-3.93635 21.357292,-7.873175 32.033518,-11.786932 -0.03485,9.683979 -0.07518,19.384238 -0.131931,29.114739 M 72.1679,-60.160993 c 0.01249,17.739489 -0.03311,35.539521 -0.125093,53.3509092 C 63.994874,-9.7914244 55.936256,-12.770148 47.868249,-15.751696 M 65.50135,-8.8695923 C 56.918651,-12.035816 48.3581,-15.209612 39.81559,-18.384071 c -0.03898,4.010847 -0.07451,8.021567 -0.106927,12.0327389 C 29.004338,-17.314033 18.346071,-28.27004 7.7142532,-39.186366 c 1.4330453,-1.435098 2.8665478,-2.869509 4.3004628,-4.30316 m 9.081443,17.844423 C 16.647845,-30.190268 12.194003,-34.75101 7.736296,-39.32562 18.51597,-50.360467 29.273154,-61.476 40.031175,-72.648193 c 0.04637,3.956712 0.0928,7.909595 0.139699,11.859071 6.235565,-2.414404 12.472422,-4.838242 18.712458,-7.269568"
       style="display:inline;opacity:0.98000004;fill:none;fill-opacity:1;fill-rule:nonzero;stroke:#8c3030;stroke-width:1.39834237;stroke-linecap:round;stroke-miterlimit:4;stroke-dasharray:none;stroke-dashoffset:0;stroke-opacity:1"
       inkscape:transform-center-x="0.30233683"
       inkscape:transform-center-y="0.44795186" />
    <path
       inkscape:transform-center-y="0.44795186"
       inkscape:transform-center-x="0.30233683"
       style="display:inline;opacity:0.98000004;fill:none;fill-opacity:1;fill-rule:nonzero;stroke:#8c3030;stroke-width:1.39834237;stroke-linecap:round;stroke-miterlimit:4;stroke-dasharray:none;stroke-dashoffset:0;stroke-opacity:1"
       d="m 119.67176,-66.017437 c 0.0241,1.819833 0.048,3.641422 0.0718,5.464706 10.72792,-4.021648 21.44956,-7.976782 32.16949,-11.880239 0.003,13.658435 0.003,27.389291 0.008,41.167956 m 0.94504,-20.231259 c 0.0161,14.971929 0.0213,29.899112 0.0257,44.8067232 -8.41902,-3.1572781 -16.83838,-6.3216522 -25.25589,-9.4876272 m 13.542,5.882332 c -7.09409,-2.680372 -14.20033,-5.340961 -21.31469,-7.985189 -0.0455,4.008171 -0.0933,8.020878 -0.14268,12.037621 -9.27399,-9.421701 -18.5662,-18.799106 -27.855215,-28.150365 m 12.397315,11.899993 c -5.396025,-5.460539 -10.791135,-10.933598 -16.187175,-16.412522 10.743154,-10.955102 21.482585,-21.93365 32.203505,-32.882441 0.0367,4.01478 0.0722,8.031571 0.10618,12.051307 4.29226,-1.58695 8.58252,-3.170008 12.87039,-4.747756 m -13.9334,1.244745 c 0.008,0.866112 0.0154,1.731987 0.0235,2.59763 10.6856,-3.967493 21.4101,-7.975607 32.16006,-12.010425 0.045,15.904648 0.13946,31.757374 0.24708,47.595904 m -0.0257,-21.460673 c 0.0242,13.22373 0.0426,26.447798 0.0669,39.6653414 -10.69676,-4.0180934 -21.38919,-8.0410614 -32.06982,-12.0733334 -0.007,0.840938 -0.0149,1.681825 -0.0223,2.52266 m 14.12218,3.609978 c -4.699,-1.75911 -9.39498,-3.513912 -14.08777,-5.264672 -0.0415,4.004424 -0.081,8.011418 -0.11837,12.0208458 C 108.89465,-17.005606 98.202274,-27.938983 87.545363,-38.844023 c 0.341012,-0.341934 0.682058,-0.68384 1.02314,-1.025718 m 9.6935,11.345451 c -3.566013,-3.646449 -7.127952,-7.294093 -10.685963,-10.943255 10.783965,-11.023933 21.60379,-22.061716 32.45554,-33.122252 0.0517,2.911171 0.10448,5.821523 0.15842,8.730993 m -4.73582,-5.453851 c 1.41747,-1.429511 2.83368,-2.859608 4.24877,-4.290212 0.0665,4.013393 0.12847,8.024779 0.18698,12.034782 10.7463,-3.975038 21.46413,-7.961376 32.1765,-11.944391 -0.006,13.285182 -0.0197,26.574832 -0.005,39.891741 m -31.82252,-31.081156 c 0.0125,1.178794 0.0252,2.357696 0.0381,3.536718 10.70481,-3.967613 21.42997,-7.923853 32.16943,-11.857652 0.0337,17.813636 0.10158,35.681047 0.18126,53.643283 m -1.46327,-25.208959 c -0.053,12.508661 -0.0325,25.077832 0.0383,37.68053 -10.65321,-3.972186 -21.26464,-7.916606 -31.85165,-11.853595 -0.002,3.403272 -0.003,6.807194 -0.001,10.2112395 m 9.40064,-7.0636225 c -3.15784,-1.180072 -6.31471,-2.358951 -9.47063,-3.536676 -0.0468,4.002051 -0.0923,8.005731 -0.13639,12.010976 -10.74942,-10.985501 -21.479244,-21.947821 -32.190561,-32.890484 5.095304,-5.152486 10.194712,-10.300614 15.298111,-15.444752 m -12.522758,18.677346 c -0.604233,-0.613804 -1.208493,-1.227619 -1.812786,-1.841445 10.701689,-11.001697 21.392574,-22.006891 32.031324,-33.014834 0.0154,3.999404 0.0272,7.998624 0.0348,11.99767 7.05261,-2.665419 14.08986,-5.331463 21.10675,-7.99804 m -21.46683,-2.622198 c 0.0577,3.464273 0.11227,6.926673 0.16408,10.387537 10.75058,-3.978458 21.47137,-7.973759 32.18077,-11.973656 -0.007,9.611616 -0.022,19.219987 -0.0342,28.832374 m 0.22589,-17.580831 c -0.002,17.776998 0.0207,35.536993 0.065,53.2615498 -7.98252,-3.0230218 -15.95999,-6.0542088 -23.93263,-9.0955998 m 17.69329,8.1378657 c -8.58013,-3.2120747 -17.15415,-6.4340277 -25.72554,-9.6692377 -0.0516,3.984256 -0.10275,7.965971 -0.15366,11.9448639 C 109.32947,-17.118405 98.557125,-28.247077 87.771265,-39.433673 c 1.412798,-1.470632 2.825363,-2.942264 4.237657,-4.414934 m 8.595018,17.875392 c -4.464761,-4.529303 -8.928939,-9.070929 -13.392673,-13.621383 10.76513,-10.976592 21.532843,-22.004558 32.301243,-33.034869 0.0491,3.99359 0.0982,7.987022 0.14731,11.981157 6.23928,-2.340088 12.4786,-4.67823 18.7178,-7.010458"
       id="path6355"
       inkscape:connector-curvature="0"
       sodipodi:nodetypes="cccccccc"
       inkscape:path-effect="#path-effect6357"
       inkscape:original-d="m 119.82702,-72.526395 0.14555,12.00283 32.15313,-12.00283 0,66.0121552 -32.15313,-12.0028492 -0.14555,12.0028492 -32.298805,-33.0060822 z" />
    <path
       inkscape:original-d="m 199.82702,-72.526395 0.14555,12.00283 32.15313,-12.00283 0,66.0121552 -32.15313,-12.0028492 -0.14555,12.0028492 -32.29881,-33.0060822 z"
       inkscape:path-effect="#path-effect6363"
       sodipodi:nodetypes="cccccccc"
       inkscape:connector-curvature="0"
       id="path6361"
       d="m 199.9553,-65.046329 c 0.0144,1.822396 0.0297,3.645139 0.0457,5.46819 10.679,-4.023112 21.3865,-8.034122 32.10529,-12.042276 0.001,13.534493 0.0184,27.072989 0.0228,40.600149 m -0.0822,-20.718194 c -0.0238,14.972648 0.008,29.943138 0.081,44.9367 -8.37759,-3.1055268 -16.74008,-6.202689 -25.09046,-9.285981 m 13.90963,5.446048 c -7.09194,-2.660074 -14.19613,-5.310137 -21.30824,-7.950479 -0.0443,4.010217 -0.0908,8.023128 -0.13891,12.038691 -9.26956,-9.42561 -18.5563,-18.82212 -27.83733,-28.191083 m 12.03021,12.284527 c -5.3484,-5.511041 -10.70945,-11.010319 -16.07745,-16.499227 10.79925,-10.975068 21.57074,-21.908679 32.36005,-32.811983 0.0545,4.026605 0.11021,8.055256 0.16793,12.08576 4.31955,-1.57457 8.64175,-3.146694 12.96781,-4.716668 m -13.20189,0.574401 c 0.006,0.864375 0.0123,1.72878 0.019,2.593219 10.66683,-3.983463 21.38635,-7.961046 32.13775,-11.926778 0.047,16.000981 0.15592,32.025003 0.27036,48.088253 m 0.35204,-21.68693 c 0.0124,13.216925 -8.9e-4,26.476147 -0.0336,39.7674903 -10.746,-3.9543133 -21.50653,-7.8846343 -32.27756,-11.7975313 -0.0142,0.849737 -0.0284,1.699569 -0.0426,2.549493 m 14.34302,3.765384 c -4.67197,-1.74478 -9.35544,-3.499998 -14.04842,-5.264969 -0.0416,3.993093 -0.0893,7.9799854 -0.14205,11.9610239 C 189.7045,-16.857728 178.8476,-28.023003 167.97385,-39.25521 c 0.33422,-0.352192 0.66841,-0.704449 1.00259,-1.056771 m 9.71917,11.391569 c -3.56077,-3.661729 -7.12144,-7.319042 -10.68178,-10.973327 10.77691,-11.03941 21.55676,-22.051195 32.34568,-33.073664 0.0397,2.918396 0.0798,5.836407 0.12024,8.753771 m -4.82175,-4.463935 c 1.40212,-1.444112 2.80449,-2.886794 4.20707,-4.328124 0.0416,3.99205 0.084,7.989457 0.1269,11.991609 10.70168,-3.997488 21.40746,-7.956195 32.10939,-11.890464 -0.0183,13.341697 -0.0418,26.716247 -0.0828,40.101291 m -32.0606,-32.000252 c 0.0138,1.172514 0.0275,2.345552 0.0411,3.519103 10.7114,-4.020846 21.4129,-7.993096 32.10276,-11.927147 -0.0431,17.813247 -0.11412,35.718034 -0.21949,53.675791 m 0.45193,-25.701854 c -0.0483,12.641781 -0.0653,25.239955 -0.0716,37.824759 -10.72342,-3.988471 -21.43797,-7.988014 -32.15917,-11.975842 -0.0421,3.388231 -0.0847,6.777487 -0.12837,10.1683584 m 9.10777,-5.9366284 c -3.16841,-1.196495 -6.33269,-2.388855 -9.49316,-3.577627 -0.0522,3.988934 -0.0991,7.982927 -0.14109,11.9810616 -10.74137,-11.0128576 -21.41167,-21.9644106 -32.04283,-32.9067936 5.13304,-5.152354 10.27476,-10.302675 15.42183,-15.456405 m -13.35837,17.974697 c -0.6054,-0.610867 -1.21057,-1.221901 -1.81553,-1.833097 10.68982,-10.954543 21.44935,-21.960924 32.22493,-32.984827 0.0509,3.995257 0.10297,7.989329 0.15513,11.982821 7.13739,-2.675986 14.2753,-5.354074 21.40724,-8.030117 m -21.24494,-2.111306 c 0.0377,3.469128 0.0754,6.934898 0.11306,10.397801 10.70368,-3.971707 21.40652,-7.974855 32.10373,-11.991609 -0.0172,9.597455 -0.0384,19.185309 -0.0664,28.774136 m -0.0255,-16.846888 c -0.0534,17.88623 -0.0579,35.597361 -0.0597,53.2091093 -8.00465,-3.0771716 -16.00869,-6.1772433 -24.01722,-9.2918393 m 17.19091,6.5154362 c -8.51159,-3.1709322 -17.04603,-6.3443182 -25.59147,-9.5143672 -0.0403,4.012777 -0.0827,8.026193 -0.12615,12.0407343 -10.74695,-10.9497383 -21.51042,-21.8828263 -32.2339,-32.7716103 1.421,-1.431479 2.84269,-2.862193 4.26519,-4.292077 m 8.78656,18.182883 c -4.43217,-4.557113 -8.87628,-9.116748 -13.32889,-13.678443 10.79196,-11.003704 21.53443,-22.019396 32.27572,-33.04059 0.042,3.99596 0.084,7.991548 0.12667,11.986879 6.2286,-2.338097 12.45932,-4.676908 18.69608,-7.015908"
       style="display:inline;opacity:0.98000004;fill:none;fill-opacity:1;fill-rule:nonzero;stroke:#8c3030;stroke-width:1.39834237;stroke-linecap:round;stroke-miterlimit:4;stroke-dasharray:none;stroke-dashoffset:0;stroke-opacity:1"
       inkscape:transform-center-x="0.30233683"
       inkscape:transform-center-y="0.44795186" />
    <path
       inkscape:transform-center-y="0.44795186"
       inkscape:transform-center-x="0.30233683"
       style="display:inline;opacity:0.98000004;fill:none;fill-opacity:1;fill-rule:nonzero;stroke:#8c3030;stroke-width:1.39834237;stroke-linecap:round;stroke-miterlimit:4;stroke-dasharray:none;stroke-dashoffset:0;stroke-opacity:1"
       d="m 279.60617,-66.050252 c 0.0318,1.819229 0.0624,3.639269 0.0919,5.46005 10.76342,-4.037325 21.482,-8.045544 32.17698,-12.041251 -0.0269,13.549227 -0.0869,27.11599 -0.1447,40.672758 m 0.51724,-18.881376 c -0.0357,14.89988 -0.0161,29.834929 0.0368,44.7873679 C 303.89449,-9.18299 295.5167,-12.306972 287.14614,-15.42853 m 13.49287,4.838381 c -7.15961,-2.673622 -14.29936,-5.348922 -21.42533,-8.028253 -0.0516,3.989691 -0.0994,7.978264 -0.1443,11.9653762 -9.25893,-9.5198612 -18.48571,-19.0557532 -27.71261,-28.6201612 m 11.88432,12.667889 c -5.34228,-5.471364 -10.70016,-10.953212 -16.06681,-16.440589 10.80192,-10.972004 21.56875,-21.96611 32.35509,-32.942704 0.0537,4.007554 0.10879,8.01629 0.16613,12.026906 4.31911,-1.597432 8.64123,-3.192382 12.96781,-4.783792 m -13.13936,1.35596 c 0.007,0.860572 0.015,1.72121 0.0231,2.581911 10.68536,-4.033008 21.4292,-8.055123 32.21718,-12.078509 0.098,15.920589 0.28181,31.838707 0.5126,47.721376 m -0.0246,-20.349108 c -0.0496,13.282014 -0.0249,26.479836 0.0507,39.6148047 -10.65232,-4.0894566 -21.2666,-8.2258577 -31.85791,-12.3954277 -9.1e-4,0.830817 -0.002,1.661454 -0.002,2.491916 m 13.62523,2.686755 c -4.71922,-1.754884 -9.4285,-3.511133 -14.12905,-5.268738 -0.0477,3.998966 -0.0898,7.997069 -0.12702,11.9943151 -10.72273,-11.0162771 -21.37241,-22.0452501 -31.984,-33.0866681 0.34243,-0.34621 0.6849,-0.692431 1.02741,-1.038665 m 9.56612,12.103764 c -3.55145,-3.647872 -7.11083,-7.288873 -10.67728,-10.923408 10.75848,-10.979743 21.45246,-21.900475 32.10546,-32.773367 0.0139,2.946794 0.0264,5.895313 0.0375,8.845479 m -3.48139,-4.910515 c 1.41257,-1.432342 2.82414,-2.865808 4.23478,-4.30035 0.0576,4.005558 0.11154,8.006851 0.16236,12.004261 10.7243,-4.011047 21.42316,-8.053845 32.10989,-12.119504 -0.0359,13.189356 -0.0882,26.347977 -0.136,39.489718 M 279.88759,-64.8378 c 0.0115,1.182098 0.0233,2.363937 0.0355,3.545542 10.69766,-3.942484 21.43021,-7.907179 32.18779,-11.87147 0.0617,17.766435 0.18336,35.533839 0.32831,53.386114 m -0.3134,-23.849883 c 0.0742,12.592884 0.0932,25.16515 0.0883,37.7257964 -10.7222,-4.0104552 -21.4642,-8.0305334 -32.20239,-12.0534544 -0.0471,3.377848 -0.0939,6.755448 -0.13968,10.1329743 m 9.19776,-6.9526703 c -3.1381,-1.168074 -6.28024,-2.339494 -9.42583,-3.513938 -0.0345,4.005946 -0.0739,8.007631 -0.11724,12.0055921 -10.74618,-11.0135241 -21.54989,-22.0821481 -32.35531,-33.1751791 5.05099,-5.223288 10.1016,-10.451987 15.15766,-15.682892 m -13.48148,17.364054 c -0.59679,-0.612877 -1.19368,-1.225546 -1.79066,-1.838006 10.83277,-10.977202 21.63561,-21.887085 32.45347,-32.71815 0.0619,4.045381 0.12487,8.096087 0.18962,12.15232 7.16132,-2.556638 14.32916,-5.093277 21.50898,-7.608528 m -21.11362,-3.803967 c 0.026,3.474315 0.0535,6.947937 0.082,10.421516 10.6733,-3.93635 21.35729,-7.873175 32.03351,-11.786932 -0.0349,9.683982 -0.0752,19.384245 -0.13193,29.114748 m -0.43599,-15.665208 c 0.0125,17.739485 -0.0331,35.539515 -0.12509,53.3508997 -8.04793,-2.9813425 -16.10655,-5.9600687 -24.17456,-8.9416187 m 17.75966,5.7571063 c -8.58269,-3.1662223 -17.14324,-6.3400173 -25.68574,-9.5144743 -0.039,4.010846 -0.0745,8.021566 -0.10693,12.0327383 -10.70433,-10.9627003 -21.3626,-21.9187073 -31.99442,-32.8350343 1.43305,-1.4351 2.86655,-2.869514 4.30047,-4.303167 m 9.31112,19.274107 c -4.44831,-4.545161 -8.90215,-9.1059 -13.35986,-13.680506 10.77968,-11.034847 21.53686,-22.15038 32.29489,-33.322573 0.0464,3.956712 0.0928,7.909595 0.1397,11.859072 6.23557,-2.414406 12.47242,-4.838245 18.71246,-7.269573"
       id="path6367"
       inkscape:connector-curvature="0"
       sodipodi:nodetypes="cccccccc"
       inkscape:path-effect="#path-effect6369"
       inkscape:original-d="m 279.82702,-72.526395 0.14555,12.00283 32.15313,-12.00283 0,66.0121552 -32.15313,-12.0028492 -0.14555,12.0028492 -32.29881,-33.0060822 z" />
    <path
       inkscape:original-d="m 359.82702,-72.526395 0.14555,12.00283 32.15313,-12.00283 0,66.0121552 -32.15313,-12.0028492 -0.14555,12.0028492 -32.29881,-33.0060822 z"
       inkscape:path-effect="#path-effect6375"
       sodipodi:nodetypes="cccccccc"
       inkscape:connector-curvature="0"
       id="path6373"
       d="m 359.96232,-65.572029 c 0.013,1.837116 0.0267,3.672595 0.0412,5.506531 10.6693,-3.954946 21.36504,-7.970418 32.06711,-12.023079 -0.0185,13.481803 -0.0282,26.911487 -0.0623,40.327768 m 0.28611,-19.477682 c -0.0895,14.925747 -0.0729,29.825716 -0.004,44.6974792 -8.3801,-3.1788619 -16.74121,-6.3679492 -25.09509,-9.5677912 m 14.69518,6.4655612 c -7.12863,-2.6494112 -14.26584,-5.3164782 -21.41302,-7.9999022 -0.0628,3.987535 -0.12834,7.9705366 -0.19687,11.9491938 -9.33731,-9.5478718 -18.70726,-19.1434218 -28.11741,-28.7797588 m 12.32456,12.037163 c -5.41191,-5.470283 -10.82406,-10.951624 -16.2408,-16.43896 10.70179,-10.971922 21.38525,-21.967807 32.01574,-32.947161 0.0132,4.006837 0.0229,8.01479 0.0283,12.024571 4.25948,-1.598392 8.51343,-3.194367 12.76091,-4.786847 m -13.76243,1.153274 c 0.0104,0.863565 0.021,1.727255 0.0318,2.59107 10.72206,-3.991739 21.47992,-7.961582 32.27307,-11.907673 0.10518,16.028368 0.27896,32.102916 0.51995,48.228677 m -0.13872,-21.406806 c -0.0267,13.209449 -0.0241,26.40369 -0.004,39.5691322 -10.70079,-4.0631212 -21.38887,-8.1477522 -32.07216,-12.2626652 -0.008,0.834846 -0.0153,1.669527 -0.023,2.50404 m 14.18251,2.840687 c -4.72158,-1.771803 -9.43581,-3.530956 -14.14409,-5.278614 -0.0538,4.006897 -0.10389,8.021101 -0.15086,12.0420277 -10.76029,-10.9251747 -21.47485,-21.7508597 -32.18356,-32.5103837 0.33938,-0.337371 0.67877,-0.674676 1.01817,-1.011917 m 10.36687,10.91445 c -3.58226,-3.668892 -7.16574,-7.331076 -10.75172,-10.988455 10.69948,-11.048757 21.37614,-22.053675 31.99456,-33.067275 0.007,2.92008 0.0126,5.839847 0.0156,8.758942 m -5.21932,-4.671237 c 1.41643,-1.433279 2.83124,-2.866028 4.24455,-4.298209 0.0629,4.010259 0.11988,8.02277 0.17178,12.037851 10.72737,-3.960522 21.41335,-7.900042 32.07896,-11.81117 -0.0604,13.368528 -0.14819,26.775224 -0.2306,40.231602 m -31.06254,-31.835306 c 0.009,1.17031 0.0174,2.341191 0.0264,3.512624 10.66648,-4.041465 21.35141,-8.030707 32.03523,-11.986117 -0.0525,17.780183 -0.10757,35.641443 -0.23783,53.515561 m 0.28315,-25.336362 c 0.0459,12.579348 0.0146,25.17128 -0.0747,37.7791591 -10.79899,-3.9674711 -21.646,-7.9217351 -32.5265,-11.8602561 -0.0892,3.402819 -0.18134,6.807015 -0.27603,10.212655 m 10.12115,-6.978881 c -3.16779,-1.161121 -6.33639,-2.324592 -9.50609,-3.489873 -0.0632,4.016825 -0.12792,8.031097 -0.19477,12.0437175 -10.83677,-10.9571285 -21.70461,-21.9387015 -32.63343,-32.8934305 4.99289,-5.158166 9.97226,-10.310381 14.93498,-15.45129 m -12.95875,17.979136 c -0.59788,-0.611349 -1.19582,-1.222648 -1.79384,-1.833894 10.81423,-10.955436 21.60658,-21.893531 32.40891,-32.785277 0.0579,4.029608 0.11645,8.062348 0.17625,12.098728 7.15191,-2.594402 14.30828,-5.17563 21.47296,-7.740178 m -21.20865,-3.068345 c 0.0323,3.433851 0.0651,6.876046 0.0981,10.325932 10.68827,-4.014818 21.37843,-7.945284 32.05913,-11.815146 -0.0311,9.720857 -0.0689,19.484487 -0.12008,29.276809 m -0.46618,-17.165882 c 0.02,17.691126 0.10372,35.519101 0.26827,53.3931266 -7.9248,-2.951274 -15.83096,-5.8919376 -23.71659,-8.8320326 m 17.03489,6.7396658 c -8.57713,-3.1936428 -17.14593,-6.3892968 -25.7093,-9.5860798 -0.0481,4.001075 -0.0952,8.001933 -0.14145,12.0026494 -10.75764,-11.0029264 -21.50343,-22.0079624 -32.25119,-33.0109014 1.41781,-1.446486 2.83558,-2.892936 4.25329,-4.33934 m 9.43875,17.576877 c -4.46207,-4.581633 -8.92283,-9.157468 -13.38212,-13.729751 10.77585,-11.029245 21.56028,-22.03782 32.35574,-33.057232 0.0561,3.996423 0.11295,7.992115 0.17059,11.986521 6.25343,-2.339636 12.50906,-4.682832 18.76706,-7.032139"
       style="display:inline;opacity:0.98000004;fill:none;fill-opacity:1;fill-rule:nonzero;stroke:#8c3030;stroke-width:1.39834237;stroke-linecap:round;stroke-miterlimit:4;stroke-dasharray:none;stroke-dashoffset:0;stroke-opacity:1"
       inkscape:transform-center-x="0.30233683"
       inkscape:transform-center-y="0.44795186" />
  </g>
</svg>
