<?xml version="1.0" encoding="UTF-8" standalone="no"?>
<!-- Created with Inkscape (http://www.inkscape.org/) -->

<svg
   xmlns:dc="http://purl.org/dc/elements/1.1/"
   xmlns:cc="http://creativecommons.org/ns#"
   xmlns:rdf="http://www.w3.org/1999/02/22-rdf-syntax-ns#"
   xmlns:svg="http://www.w3.org/2000/svg"
   xmlns="http://www.w3.org/2000/svg"
   xmlns:sodipodi="http://sodipodi.sourceforge.net/DTD/sodipodi-0.dtd"
   xmlns:inkscape="http://www.inkscape.org/namespaces/inkscape"
   width="400"
   height="160"
   viewBox="0 0 400 160"
   id="svg4336"
   version="1.1"
   inkscape:version="0.91 r13725"
   sodipodi:docname="tutorial_arrow_right.svg">
  <defs
     id="defs4338">
    <inkscape:path-effect
       tgtlength_rdm="0.3;1"
       tgtlength="100"
       tgtscale="10"
       tgt_places_rdmness="1;1"
       nbtangents="0"
       tremble_frequency="1"
       tremble_size="0.6;618836982"
       parallel_offset="0.6;1"
       ends_tolerance="0.1;1"
       strokeoverlap_rdm="0.3;1"
       strokeoverlap="0.3"
       strokelength_rdm="0.3;1"
       strokelength="100"
       nbiter_approxstrokes="4"
       is_visible="true"
       id="path-effect6375"
       effect="sketch" />
    <inkscape:path-effect
       effect="sketch"
       id="path-effect6369"
       is_visible="true"
       nbiter_approxstrokes="4"
       strokelength="100"
       strokelength_rdm="0.3;1"
       strokeoverlap="0.3"
       strokeoverlap_rdm="0.3;1"
       ends_tolerance="0.1;1"
       parallel_offset="0.6;42583124"
       tremble_size="0.6;1"
       tremble_frequency="1"
       nbtangents="0"
       tgt_places_rdmness="1;1"
       tgtscale="10"
       tgtlength="100"
       tgtlength_rdm="0.3;1" />
    <inkscape:path-effect
       tgtlength_rdm="0.3;1"
       tgtlength="100"
       tgtscale="10"
       tgt_places_rdmness="1;1"
       nbtangents="0"
       tremble_frequency="1"
       tremble_size="0.6;1514296265"
       parallel_offset="0.5;1"
       ends_tolerance="0.1;1"
       strokeoverlap_rdm="0.3;1"
       strokeoverlap="0.3"
       strokelength_rdm="0.3;1"
       strokelength="100"
       nbiter_approxstrokes="4"
       is_visible="true"
       id="path-effect6363"
       effect="sketch" />
    <inkscape:path-effect
       effect="sketch"
       id="path-effect6357"
       is_visible="true"
       nbiter_approxstrokes="4"
       strokelength="100"
       strokelength_rdm="0.3;1"
       strokeoverlap="0.3"
       strokeoverlap_rdm="0.3;1"
       ends_tolerance="0.1;1"
       parallel_offset="0.6;1"
       tremble_size="0.6;1570625061"
       tremble_frequency="1"
       nbtangents="0"
       tgt_places_rdmness="1;1"
       tgtscale="10"
       tgtlength="100"
       tgtlength_rdm="0.3;1" />
    <inkscape:path-effect
       tgtlength_rdm="0.3;1"
       tgtlength="100"
       tgtscale="10"
       tgt_places_rdmness="1;1"
       nbtangents="0"
       tremble_frequency="1"
       tremble_size="0.9;2079157014"
       parallel_offset="0.8;750149994"
       ends_tolerance="0.1;1"
       strokeoverlap_rdm="0.3;1"
       strokeoverlap="0.3"
       strokelength_rdm="0.3;1"
       strokelength="100"
       nbiter_approxstrokes="4"
       is_visible="true"
       id="path-effect6326"
       effect="sketch" />
    <inkscape:path-effect
       effect="sketch"
       id="path-effect6322"
       is_visible="true"
       nbiter_approxstrokes="4"
       strokelength="100"
       strokelength_rdm="0.3;1"
       strokeoverlap="0.3"
       strokeoverlap_rdm="0.3;1"
       ends_tolerance="0.1;1"
       parallel_offset="0.8;1"
       tremble_size="1;576035799"
       tremble_frequency="1"
       nbtangents="0"
       tgt_places_rdmness="1;1"
       tgtscale="10"
       tgtlength="100"
       tgtlength_rdm="0.3;1" />
    <inkscape:path-effect
       tgtlength_rdm="0.3;1"
       tgtlength="100"
       tgtscale="10"
       tgt_places_rdmness="1;1"
       nbtangents="0"
       tremble_frequency="1"
       tremble_size="0.7;769559907"
       parallel_offset="0.8;1"
       ends_tolerance="0.1;1"
       strokeoverlap_rdm="0.3;1"
       strokeoverlap="0.3"
       strokelength_rdm="0.3;1"
       strokelength="100"
       nbiter_approxstrokes="4"
       is_visible="true"
       id="path-effect6318"
       effect="sketch" />
    <inkscape:path-effect
       effect="sketch"
       id="path-effect6314"
       is_visible="true"
       nbiter_approxstrokes="4"
       strokelength="100"
       strokelength_rdm="0.3;1561264387"
       strokeoverlap="0.3"
       strokeoverlap_rdm="0.3;1"
       ends_tolerance="0.1;1"
       parallel_offset="0.8;1"
       tremble_size="0.9;1"
       tremble_frequency="1"
       nbtangents="0"
       tgt_places_rdmness="1;1"
       tgtscale="10"
       tgtlength="100"
       tgtlength_rdm="0.3;1" />
    <inkscape:path-effect
       tgtlength_rdm="0.3;1"
       tgtlength="100"
       tgtscale="10"
       tgt_places_rdmness="1;1"
       nbtangents="0"
       tremble_frequency="1"
       tremble_size="0.6;1"
       parallel_offset="0.6;1"
       ends_tolerance="0.1;1"
       strokeoverlap_rdm="0.3;1"
       strokeoverlap="0.3"
       strokelength_rdm="0.3;1"
       strokelength="100"
       nbiter_approxstrokes="4"
       is_visible="true"
       id="path-effect6310"
       effect="sketch" />
    <inkscape:path-effect
       effect="sketch"
       id="path-effect6296"
       is_visible="true"
       nbiter_approxstrokes="4"
       strokelength="100"
       strokelength_rdm="0.3;1"
       strokeoverlap="0.3"
       strokeoverlap_rdm="0.3;1"
       ends_tolerance="0.1;1"
       parallel_offset="0.6;750149994"
       tremble_size="0.6;2079157014"
       tremble_frequency="1"
       nbtangents="0"
       tgt_places_rdmness="1;1"
       tgtscale="10"
       tgtlength="100"
       tgtlength_rdm="0.3;1" />
    <inkscape:path-effect
       tgtlength_rdm="0.3;1"
       tgtlength="100"
       tgtscale="10"
       tgt_places_rdmness="1;1"
       nbtangents="0"
       tremble_frequency="1"
       tremble_size="0.6;576035799"
       parallel_offset="0.6;1"
       ends_tolerance="0.1;1"
       strokeoverlap_rdm="0.3;1"
       strokeoverlap="0.3"
       strokelength_rdm="0.3;1"
       strokelength="100"
       nbiter_approxstrokes="4"
       is_visible="true"
       id="path-effect6292"
       effect="sketch" />
    <inkscape:path-effect
       effect="sketch"
       id="path-effect6288"
       is_visible="true"
       nbiter_approxstrokes="4"
       strokelength="100"
       strokelength_rdm="0.3;1"
       strokeoverlap="0.3"
       strokeoverlap_rdm="0.3;1"
       ends_tolerance="0.1;1"
       parallel_offset="0.6;1"
       tremble_size="0.6;769559907"
       tremble_frequency="1"
       nbtangents="0"
       tgt_places_rdmness="1;1"
       tgtscale="10"
       tgtlength="100"
       tgtlength_rdm="0.3;1" />
    <inkscape:path-effect
       tgtlength_rdm="0.3;1"
       tgtlength="100"
       tgtscale="10"
       tgt_places_rdmness="1;1"
       nbtangents="0"
       tremble_frequency="1"
       tremble_size="0.6;1"
       parallel_offset="0.6;1"
       ends_tolerance="0.1;1"
       strokeoverlap_rdm="0.3;1"
       strokeoverlap="0.3"
       strokelength_rdm="0.3;1561264387"
       strokelength="100"
       nbiter_approxstrokes="4"
       is_visible="true"
       id="path-effect6284"
       effect="sketch" />
    <inkscape:path-effect
       tgtlength_rdm="0.3;1"
       tgtlength="100"
       tgtscale="10"
       tgt_places_rdmness="1;1"
       nbtangents="0"
       tremble_frequency="1"
       tremble_size="1.9;1"
       parallel_offset="0.8;1"
       ends_tolerance="0.1;1"
       strokeoverlap_rdm="0.3;1"
       strokeoverlap="0.3"
       strokelength_rdm="0.3;1"
       strokelength="100"
       nbiter_approxstrokes="4"
       is_visible="true"
       id="path-effect6271"
       effect="sketch" />
    <inkscape:path-effect
       effect="sketch"
       id="path-effect6250"
       is_visible="true"
       nbiter_approxstrokes="4"
       strokelength="100"
       strokelength_rdm="0.3;1"
       strokeoverlap="0.3"
       strokeoverlap_rdm="0.3;1"
       ends_tolerance="0.1;1"
       parallel_offset="0.6;1"
       tremble_size="0.6;1"
       tremble_frequency="1"
       nbtangents="0"
       tgt_places_rdmness="1;1"
       tgtscale="10"
       tgtlength="100"
       tgtlength_rdm="0.3;1" />
    <inkscape:path-effect
       effect="skeletal"
       id="path-effect5423"
       is_visible="true"
       pattern="m -127.93056,6.6987434 2.71036,-4.83001 2.71035,4.83001 z"
       copytype="repeated"
       prop_scale="1"
       scale_y_rel="false"
       spacing="3.5"
       normal_offset="0"
       tang_offset="0"
       prop_units="false"
       vertical_pattern="false"
       fuse_tolerance="0" />
    <inkscape:path-effect
       effect="sketch"
       id="path-effect5425"
       is_visible="true"
       nbiter_approxstrokes="3"
       strokelength="15"
       strokelength_rdm="0.3;1"
       strokeoverlap="0.3"
       strokeoverlap_rdm="0.3;1"
       ends_tolerance="0.1;1"
       parallel_offset="0.1;1519241579"
       tremble_size="0.3;313929042"
       tremble_frequency="1"
       nbtangents="0"
       tgt_places_rdmness="1;1"
       tgtscale="10"
       tgtlength="100"
       tgtlength_rdm="0.3;1" />
    <inkscape:path-effect
       effect="sketch"
       id="path-effect5116"
       is_visible="true"
       nbiter_approxstrokes="4"
       strokelength="20"
       strokelength_rdm="0.3;1"
       strokeoverlap="0.3"
       strokeoverlap_rdm="0.3;1"
       ends_tolerance="0.1;1"
       parallel_offset="1.2;334524706"
       tremble_size="1.2;1"
       tremble_frequency="1"
       nbtangents="0"
       tgt_places_rdmness="1;1"
       tgtscale="10"
       tgtlength="100"
       tgtlength_rdm="0.3;1" />
  </defs>
  <sodipodi:namedview
     id="base"
     pagecolor="#ffffff"
     bordercolor="#666666"
     borderopacity="1.0"
     inkscape:pageopacity="0.0"
     inkscape:pageshadow="2"
     inkscape:zoom="1.979899"
     inkscape:cx="185.76732"
     inkscape:cy="38.120299"
     inkscape:document-units="px"
     inkscape:current-layer="layer5"
     showgrid="false"
     inkscape:window-width="1920"
     inkscape:window-height="1017"
     inkscape:window-x="1912"
     inkscape:window-y="-8"
     inkscape:window-maximized="1"
     fit-margin-top="0"
     fit-margin-left="0"
     fit-margin-right="0"
     fit-margin-bottom="0"
     units="px"
     inkscape:snap-center="true" />
  <metadata
     id="metadata4341">
    <rdf:RDF>
      <cc:Work
         rdf:about="">
        <dc:format>image/svg+xml</dc:format>
        <dc:type
           rdf:resource="http://purl.org/dc/dcmitype/StillImage" />
        <dc:title></dc:title>
      </cc:Work>
    </rdf:RDF>
  </metadata>
  <g
     inkscape:label="box"
     inkscape:groupmode="layer"
     id="layer1"
     transform="translate(-277.14285,-163.79079)"
     style="display:none"
     sodipodi:insensitive="true">
    <rect
       style="opacity:0.98000004;fill:#000000;fill-opacity:0.25632911;fill-rule:nonzero;stroke:none;stroke-width:1.5;stroke-linecap:round;stroke-linejoin:round;stroke-miterlimit:4;stroke-dasharray:none;stroke-dashoffset:0;stroke-opacity:1"
       id="rect6252"
       width="80"
       height="80"
       x="277.14285"
       y="243.79079" />
    <rect
       y="243.79079"
       x="357.14285"
       height="80"
       width="80"
       id="rect6256"
       style="opacity:0.98000004;fill:#000000;fill-opacity:0.25632911;fill-rule:nonzero;stroke:none;stroke-width:1.5;stroke-linecap:round;stroke-linejoin:round;stroke-miterlimit:4;stroke-dasharray:none;stroke-dashoffset:0;stroke-opacity:1" />
    <rect
       style="opacity:0.98000004;fill:#000000;fill-opacity:0.25632911;fill-rule:nonzero;stroke:none;stroke-width:1.5;stroke-linecap:round;stroke-linejoin:round;stroke-miterlimit:4;stroke-dasharray:none;stroke-dashoffset:0;stroke-opacity:1"
       id="rect6258"
       width="80"
       height="80"
       x="437.14285"
       y="243.79079" />
    <rect
       y="243.79079"
       x="517.14282"
       height="80"
       width="80"
       id="rect6260"
       style="opacity:0.98000004;fill:#000000;fill-opacity:0.25632911;fill-rule:nonzero;stroke:none;stroke-width:1.5;stroke-linecap:round;stroke-linejoin:round;stroke-miterlimit:4;stroke-dasharray:none;stroke-dashoffset:0;stroke-opacity:1" />
    <rect
       style="opacity:0.98000004;fill:#000000;fill-opacity:0.25632911;fill-rule:nonzero;stroke:none;stroke-width:1.5;stroke-linecap:round;stroke-linejoin:round;stroke-miterlimit:4;stroke-dasharray:none;stroke-dashoffset:0;stroke-opacity:1"
       id="rect6262"
       width="80"
       height="80"
       x="597.14282"
       y="243.79079" />
    <rect
       y="163.79079"
       x="277.14285"
       height="80"
       width="80"
       id="rect6298"
       style="opacity:0.98000004;fill:#000000;fill-opacity:0.25632911;fill-rule:nonzero;stroke:none;stroke-width:1.5;stroke-linecap:round;stroke-linejoin:round;stroke-miterlimit:4;stroke-dasharray:none;stroke-dashoffset:0;stroke-opacity:1" />
    <rect
       style="opacity:0.98000004;fill:#000000;fill-opacity:0.25632911;fill-rule:nonzero;stroke:none;stroke-width:1.5;stroke-linecap:round;stroke-linejoin:round;stroke-miterlimit:4;stroke-dasharray:none;stroke-dashoffset:0;stroke-opacity:1"
       id="rect6300"
       width="80"
       height="80"
       x="357.14285"
       y="163.79079" />
    <rect
       y="163.79079"
       x="437.14285"
       height="80"
       width="80"
       id="rect6302"
       style="opacity:0.98000004;fill:#000000;fill-opacity:0.25632911;fill-rule:nonzero;stroke:none;stroke-width:1.5;stroke-linecap:round;stroke-linejoin:round;stroke-miterlimit:4;stroke-dasharray:none;stroke-dashoffset:0;stroke-opacity:1" />
    <rect
       style="opacity:0.98000004;fill:#000000;fill-opacity:0.25632911;fill-rule:nonzero;stroke:none;stroke-width:1.5;stroke-linecap:round;stroke-linejoin:round;stroke-miterlimit:4;stroke-dasharray:none;stroke-dashoffset:0;stroke-opacity:1"
       id="rect6304"
       width="80"
       height="80"
       x="517.14282"
       y="163.79079" />
    <rect
       y="163.79079"
       x="597.14282"
       height="80"
       width="80"
       id="rect6306"
       style="opacity:0.98000004;fill:#000000;fill-opacity:0.25632911;fill-rule:nonzero;stroke:none;stroke-width:1.5;stroke-linecap:round;stroke-linejoin:round;stroke-miterlimit:4;stroke-dasharray:none;stroke-dashoffset:0;stroke-opacity:1" />
  </g>
  <g
     inkscape:groupmode="layer"
     id="layer7"
     inkscape:label="normal_fill"
     style="display:inline"
     transform="translate(0,80)" />
  <g
     inkscape:groupmode="layer"
     id="layer5"
     inkscape:label="normal"
     style="display:inline"
     transform="translate(0,80)">
    <path
       style="display:inline;opacity:0.98000004;fill:none;fill-opacity:1;fill-rule:nonzero;stroke:#30618c;stroke-width:1.5;stroke-linecap:round;stroke-miterlimit:4;stroke-dasharray:none;stroke-dashoffset:0;stroke-opacity:1"
       d="m 40.665388,12.578873 c -0.01447,2.10892 -0.03058,4.218929 -0.04822,6.329921 C 29.166891,14.579537 17.665637,10.283286 6.139628,5.9995592 6.1101429,18.428194 6.0552998,30.869658 6.0022845,43.302717 M 5.8632761,22.672904 c -0.042171,17.616632 -0.00707,35.282425 0.068857,52.967999 5.8982721,-2.179926 11.8016901,-4.35736 17.7086221,-6.533615 M 8.391084,75.197231 c 10.391567,-3.923861 20.825907,-7.851337 31.283785,-11.789865 0.05524,4.277315 0.113961,8.552994 0.175074,12.826613 6.601803,-6.765941 13.215093,-13.541788 19.82832,-20.332007 M 48.681964,68.157363 C 57.607648,59.158199 66.491115,50.130673 75.362754,41.096835 63.83385,29.316309 52.284835,17.52505 40.783103,5.7719551 c -0.02333,2.5249503 -0.04555,5.0507879 -0.06644,7.5776859 m -1.000472,0.793092 c -0.01816,1.150576 -0.03571,2.301272 -0.05266,3.452076 C 28.135125,13.269193 16.673598,8.9557546 5.2612497,4.6394805 5.363394,19.439226 5.537351,34.234829 5.7519001,48.999797 M 5.689825,28.21944 C 5.6300216,44.232869 5.6782365,60.123917 5.7935192,75.929982 14.820019,72.494158 23.87059,69.027833 32.936428,65.539049 m -17.341427,6.626282 c 8.000975,-2.997627 16.03096,-5.999238 24.083916,-9.004788 0.06299,4.288046 0.131742,8.575104 0.205493,12.86118 8.475611,-8.615112 16.990514,-17.237942 25.528012,-25.868369 M 54.289084,61.63837 C 61.349231,54.436884 68.378509,47.26218 75.38348,40.111137 66.00426,30.619472 56.582218,21.169495 47.132704,11.753913 M 57.360468,22.471864 C 51.72609,16.705563 46.075487,10.921035 40.413366,5.1214251 40.360486,9.4052163 40.304366,13.684766 40.24571,17.960543 28.729925,13.622907 17.1934,9.2544343 5.6525455,4.8660963 5.6308329,10.877294 5.608065,16.883649 5.5862169,22.886482 m 34.9288491,-9.84047 c -0.02129,1.47457 -0.04198,2.948738 -0.06211,4.422549 C 28.93647,13.238268 17.459847,8.9830781 6.010894,4.7309074 6.0756699,21.371605 6.1909969,38.017819 6.3267578,54.738485 M 5.7414841,30.03079 c 0.090291,15.319839 0.098828,30.609164 0.082019,45.884175 C 17.148446,71.667875 28.457516,67.411821 39.778667,63.154831 m -19.579008,6.484261 c 6.52644,-2.399828 13.035832,-4.81378 19.533254,-7.23906 0.05859,4.289508 0.112583,8.574663 0.163186,12.85613 C 51.439518,63.414498 62.932776,51.518252 74.444773,39.605312 72.842009,37.95731 71.239605,36.308989 69.637741,34.660449 M 62.077077,52.97607 C 66.176016,48.820983 70.270315,44.675436 74.362405,40.540052 62.869087,28.812677 51.35801,17.167032 39.884659,5.6173098 39.852269,9.9746542 39.822428,14.33848 39.79611,18.709035 38.644426,18.299041 37.493034,17.889606 36.341959,17.480736 M 40.41512,6.6699555 C 40.352506,10.436837 40.291635,14.202906 40.231859,17.968988 28.687914,13.746461 17.155724,9.5240753 5.6125195,5.3308936 5.5804754,13.887276 5.5431616,22.457631 5.4930433,31.051574 M 5.7742445,14.106678 C 5.7886476,34.559471 5.7258216,55.092745 5.6037332,75.631112 11.022554,73.600506 16.436606,71.57031 21.846299,69.538804 M 5.5679674,74.705446 c -8.532e-4,0.425086 -0.00166,0.850155 -0.00242,1.275208 11.4749069,-4.251325 22.9893829,-8.515719 34.5334939,-12.776469 0.06856,4.302678 0.140752,8.605802 0.216141,12.910087 9.566376,-9.660986 19.164748,-19.310364 28.781678,-28.925523 M 51.398715,65.033172 C 59.360337,56.952526 67.304487,48.82264 75.240507,40.653134 63.692972,28.762928 52.128213,16.788794 40.575026,4.7603876 40.521884,8.9933068 40.469524,13.222559 40.418452,17.448666 40.1516,17.344664 39.884753,17.240649 39.617913,17.136619"
       id="rect4280"
       inkscape:connector-curvature="0"
       sodipodi:nodetypes="cccccccc"
       inkscape:path-effect="#path-effect6250"
       inkscape:original-d="M 40.37881,5.10898 40.22268,17.9844 5.73205,5.10898 l 0,70.81115 34.49063,-12.87544 0.15613,12.87544 34.64688,-35.40558 z" />
    <path
       inkscape:original-d="M 119.80912,5.10898 119.65299,17.9844 85.16236,5.10898 l 0,70.81115 34.49063,-12.87544 0.15613,12.87544 34.64688,-35.40558 z"
       inkscape:path-effect="#path-effect6284"
       sodipodi:nodetypes="cccccccc"
       inkscape:connector-curvature="0"
       id="path6282"
       d="m 120.0957,12.578873 c -0.0145,2.10892 -0.0306,4.218929 -0.0482,6.329921 C 108.5972,14.579539 97.095951,10.283293 85.569944,5.9995695 85.541295,18.076414 85.488703,30.165371 85.437107,42.246952 M 85.293586,21.872701 c -0.04281,17.882829 -0.006,35.816324 0.07231,53.76974 6.16238,-2.27715 12.330301,-4.55164 18.501907,-6.824971 m -15.589936,6.209359 c 10.240256,-3.866725 20.522086,-7.73692 30.827046,-11.617742 0.055,4.277456 0.1135,8.55329 0.17444,12.827078 9.72954,-9.971453 19.48444,-19.964281 29.22765,-29.992867 M 135.45192,60.656994 C 141.91188,54.143856 148.34973,47.61586 154.77699,41.081367 143.25964,29.307581 131.70791,17.512702 120.18916,5.7456337 c -0.0442,4.3008493 -0.0862,8.6035773 -0.12471,12.9090433 -3.03179,-1.125251 -6.06163,-2.248935 -9.089,-3.37068 m 8.17105,-1.141264 c -0.0182,1.150576 -0.0357,2.301272 -0.0527,3.452075 C 107.56544,13.269188 96.103942,8.9557247 84.691617,4.6394303 84.813705,22.324008 85.038319,40.002682 85.312104,57.630328 M 85.120135,34.686085 c -0.05173,13.850612 -0.02263,27.609697 0.06078,41.301421 11.571027,-4.391689 23.184972,-8.836615 34.823212,-13.317801 0.0949,3.952991 0.19248,7.902099 0.29196,11.847921 m -9.31775,-8.3076 c 2.70324,-1.01279 5.40979,-2.026035 8.11941,-3.039735 0.0464,4.290664 0.0996,8.580332 0.15881,12.869008 11.57644,-11.813926 23.24171,-23.642512 34.95275,-35.485383 -6.56162,-6.824373 -13.10803,-13.65349 -19.6475,-20.487277 m 15.9155,15.558326 C 140.41319,25.287632 130.28544,15.005502 120.11351,4.769324 c -0.0736,4.316852 -0.15119,8.637764 -0.23212,12.962493 -6.55336,-2.375658 -13.11561,-4.741321 -19.68458,-7.098019 m 19.50956,2.960619 c -0.013,1.469757 -0.0266,2.938916 -0.0407,4.407495 C 108.19979,13.727835 96.698555,9.4131631 85.178393,5.0688639 85.147068,21.507246 85.081485,37.892009 85.021607,54.249854 m 0.379792,-25.238136 c -0.03692,15.541943 -0.0083,31.039112 0.06151,46.547265 11.552303,-4.250777 23.130575,-8.494631 34.722615,-12.703654 0.0726,3.676277 0.14643,7.35564 0.22115,11.038821 m -14.5516,-5.704498 c 4.63146,-1.709591 9.25448,-3.422328 13.87093,-5.137677 0.0643,4.294224 0.12355,8.586454 0.17905,12.877048 11.56227,-11.806547 23.06881,-23.637298 34.5906,-35.471885 -0.54689,-0.559097 -1.09374,-1.118203 -1.64055,-1.677315 M 141.82213,52.18004 c 4.05669,-4.093866 8.10163,-8.197477 12.13772,-12.309232 -11.51371,-11.801373 -23.10034,-23.66984 -34.69112,-35.567584 -0.0282,1.9157172 -0.0566,3.8310357 -0.0848,5.746016 m 9.56221,4.916253 c -3.20179,-3.28812 -6.4065,-6.5702702 -9.6129,-9.8461392 -0.0368,4.3080557 -0.0751,8.6215612 -0.11393,12.9407662 C 107.56029,13.846651 96.09717,9.679779 84.652737,5.5653573 c 0.01508,3.5797596 0.03171,7.1638557 0.05042,10.7524287 M 119.84543,6.6699555 c -0.0626,3.7668815 -0.12348,7.5329475 -0.18325,11.2990235 C 108.11825,13.746435 96.586093,9.5240084 85.04291,5.3308014 84.984939,20.817405 84.909684,36.349802 84.772404,51.985093 m 0.432151,-21.802194 c 0.01064,15.111629 -0.02093,30.267152 -0.0874,45.436218 7.80222,-2.922028 15.593813,-5.839932 23.376013,-8.758812 m -15.655292,6.189566 c 8.864582,-3.284302 17.752982,-6.576743 26.660632,-9.869619 0.0629,4.302415 0.12973,8.604741 0.20009,12.907692 9.69485,-9.811323 19.42595,-19.616204 29.17926,-29.391011 m -15.88252,16.122483 c 7.2371,-7.34529 14.45974,-14.731236 21.67497,-22.150641 -11.5453,-11.879544 -23.10962,-23.844866 -34.66412,-35.8664199 1e-5,-4.925e-4 -0.004,0.3014205 -0.004,0.3009281 M 136.09334,21.332522 C 130.66974,15.809371 125.24869,10.287633 119.8307,4.7709342 119.78337,9.0785839 119.73699,13.387776 119.69163,17.699123 108.21387,13.463185 96.744534,9.2448685 85.285718,5.058514 c 0.02673,8.694107 0.05866,17.403984 0.0965,26.134602"
       style="display:inline;opacity:0.98000004;fill:none;fill-opacity:1;fill-rule:nonzero;stroke:#30618c;stroke-width:1.5;stroke-linecap:round;stroke-miterlimit:4;stroke-dasharray:none;stroke-dashoffset:0;stroke-opacity:1" />
    <path
       style="display:inline;opacity:0.98000004;fill:none;fill-opacity:1;fill-rule:nonzero;stroke:#30618c;stroke-width:1.5;stroke-linecap:round;stroke-miterlimit:4;stroke-dasharray:none;stroke-dashoffset:0;stroke-opacity:1"
       d="m 199.6461,11.655459 c -0.0365,2.114081 -0.0712,4.228536 -0.10436,6.343323 -11.54008,-4.307259 -23.02589,-8.6033586 -34.48266,-12.8965938 0.0406,12.4190118 0.11094,24.8409578 0.18493,37.2572368 m 0.35016,-19.39113 c 0.0869,17.755585 0.10739,35.407216 0.13497,53.041405 5.8811,-2.198169 11.7631,-4.398537 17.64927,-6.597232 m -14.71745,5.109782 c 10.38789,-3.901894 20.78941,-7.795661 31.18385,-11.681906 0.0308,4.297434 0.0606,8.595982 0.0881,12.89561 6.52821,-6.708916 13.0457,-13.412644 19.54003,-20.11155 M 208.77371,68.166666 C 217.68455,59.07435 226.54128,50.024013 235.36779,40.997102 223.78003,29.22561 212.14091,17.493955 200.50342,5.7609976 c -0.044,2.528016 -0.088,5.0560014 -0.13177,7.5838114 m -1.29492,1.276123 c -0.0143,1.15912 -0.0282,2.317733 -0.042,3.475858 -11.49388,-4.247761 -22.95669,-8.5506939 -34.38967,-12.8867311 0.0772,14.7758631 0.19803,29.5033861 0.36023,44.2215051 m 0.71066,-21.624677 c -0.005,15.928212 -0.0389,31.896596 -0.10552,47.883972 8.91752,-3.327202 17.82347,-6.647589 26.71735,-9.965712 m -16.62691,7.279209 c 8.07567,-3.030564 16.12323,-6.047163 24.15146,-9.056346 0.0506,4.286226 0.0964,8.574312 0.1384,12.863434 8.38666,-8.606573 16.74389,-17.205002 25.09593,-25.813397 m -11.8731,10.537254 c 7.00362,-7.146819 14.05923,-14.314045 21.15828,-21.490026 -9.25436,-9.524764 -18.43218,-19.064954 -27.55347,-28.593326 m 9.60251,10.419914 C 210.73384,16.098746 205.06467,10.325135 199.4087,4.5530006 199.35908,8.851364 199.31317,13.150143 199.27026,17.449631 187.7995,13.179786 176.35329,8.9157399 164.91509,4.6643612 c 0.029,6.0788118 0.0599,12.1607128 0.0908,18.2465278 m 35.26814,-9.916476 c -0.0205,1.46914 -0.0413,2.938098 -0.0622,4.406889 -11.52337,-4.272306 -23.06188,-8.5563207 -34.62509,-12.8430709 -0.0897,16.5939589 -0.2245,33.1829199 -0.42814,49.7890409 m 0.0793,-24.897721 c -0.0459,15.336327 -0.0818,30.642939 -0.1364,45.947162 11.29503,-4.223972 22.57834,-8.449441 33.83575,-12.662861 m -18.43486,6.811451 c 6.50632,-2.426757 13.00495,-4.857155 19.49845,-7.291907 0.0562,4.283637 0.11035,8.5656 0.16318,12.84572 11.552,-11.846848 23.08391,-23.720983 34.6306,-35.632105 -1.59796,-1.647748 -3.19564,-3.296204 -4.79295,-4.945393 m -7.24218,18.651354 c 4.07791,-4.141725 8.14372,-8.282636 12.19789,-12.420935 -11.60087,-11.735638 -23.29531,-23.450274 -35.07249,-35.1029046 -0.11136,4.3305953 -0.22831,8.6653796 -0.35067,13.0050746 -1.17936,-0.418889 -2.35917,-0.83737 -3.53943,-1.255426 m 4.34342,-10.5882577 c -0.0523,3.7454697 -0.10727,7.4935927 -0.16529,11.2443917 -11.53819,-4.272603 -23.1087,-8.5164727 -34.72085,-12.7307891 -0.0797,8.5417641 -0.17938,17.0976671 -0.30202,25.6679801 m 0.5238,-16.922938 c -0.0365,20.43065 -0.0324,40.88446 -0.0299,61.259576 5.45416,-2.076917 10.90819,-4.160166 16.36111,-6.252072 m -16.22337,5.366251 c -8e-5,0.424073 -1.6e-4,0.848157 -2.3e-4,1.272252 11.49478,-4.27908 22.99252,-8.548676 34.49202,-12.803627 0.0529,4.304706 0.10613,8.611204 0.15946,12.919714 9.49664,-9.647625 18.9949,-19.275128 28.49314,-28.875525 m -17.91839,17.9977 c 7.91271,-8.136456 15.8306,-16.268973 23.74579,-24.406935 -11.57786,-11.844295 -23.16144,-23.700127 -34.77502,-35.596428 -0.0688,4.2672575 -0.13971,8.531781 -0.21303,12.793061 -0.26832,-0.101665 -0.53666,-0.203344 -0.805,-0.305038"
       id="path6286"
       inkscape:connector-curvature="0"
       sodipodi:nodetypes="cccccccc"
       inkscape:path-effect="#path-effect6288"
       inkscape:original-d="m 200.01588,5.10898 -0.15613,12.87542 -34.49063,-12.87542 0,70.81115 34.49063,-12.87544 0.15613,12.87544 34.64689,-35.40558 z" />
    <path
       inkscape:original-d="m 280.13177,5.10898 -0.15613,12.87542 -34.49063,-12.87542 0,70.81115 34.49063,-12.87544 0.15613,12.87544 34.64689,-35.40558 z"
       inkscape:path-effect="#path-effect6292"
       sodipodi:nodetypes="cccccccc"
       inkscape:connector-curvature="0"
       id="path6290"
       d="m 280.67146,12.621065 c -0.0176,2.11001 -0.0361,4.220147 -0.0554,6.330319 -11.45962,-4.334007 -22.94463,-8.666823 -34.43626,-13.0162626 0.005,12.3621266 0.004,24.7072256 0.015,37.0168276 m -0.68635,-19.843045 c -0.0231,17.727441 0.0503,35.321556 0.19985,52.846595 5.92441,-2.236921 11.85841,-4.482549 17.80109,-6.734009 m -15.13561,5.844562 c 10.41874,-3.843883 20.8589,-7.720699 31.30986,-11.611257 0.0526,4.295775 0.10675,8.589516 0.16192,12.882315 6.58878,-6.723886 13.18234,-13.452298 19.7743,-20.173709 m -10.71626,12.364276 c 8.80999,-8.999766 17.66727,-18.041514 26.5516,-27.103604 -11.51237,-11.817368 -22.97873,-23.669327 -34.44395,-35.5078852 -0.0178,2.5119149 -0.0355,5.0241412 -0.0534,7.5368492 m -1.34337,0.802225 c -0.0123,1.153929 -0.0247,2.307678 -0.0373,3.461249 -11.48178,-4.296188 -22.98077,-8.6125612 -34.48933,-12.9492993 -0.0141,14.7750163 -0.0422,29.5202963 -0.0708,44.2355233 m 0.96481,-21.181713 c 0.068,16.044868 0.0825,32.011596 0.0894,47.958417 8.96161,-3.351498 17.92055,-6.710141 26.88674,-10.063407 m -17.33358,6.54775 c 8.00017,-2.986379 16.0253,-5.980494 24.06928,-8.980043 0.0585,4.291051 0.12172,8.580739 0.18891,12.869354 8.45721,-8.607994 16.94554,-17.224423 25.44813,-25.842924 m -11.8279,12.054802 c 7.0168,-7.164747 14.04779,-14.363657 21.08773,-21.589762 -9.33281,-9.591292 -18.64987,-19.230495 -27.96345,-28.90131 m 9.88145,10.377639 C 290.80603,16.46818 285.13081,10.687221 279.47558,4.908792 c -0.0492,4.2950253 -0.0928,8.590762 -0.13192,12.88723 -11.45983,-4.278479 -22.88276,-8.5509799 -34.29465,-12.8170458 0.0419,6.0715608 0.0866,12.1446908 0.13082,18.2194438 m 35.52887,-9.716507 c -0.0143,1.469141 -0.0289,2.938203 -0.0439,4.407202 -11.47316,-4.270558 -22.96909,-8.5455086 -34.47606,-12.8154867 -0.0136,16.6166287 -0.0474,33.2423407 -0.0725,49.9002597 m -0.54219,-25.350955 c 0.0817,15.251757 0.0429,30.522688 -0.065,45.785941 11.25284,-4.256395 22.46234,-8.517599 33.65387,-12.796917 m -19.14014,7.467755 c 6.5034,-2.403079 12.99998,-4.82576 19.49189,-7.265699 0.0552,4.280421 0.10855,8.55421 0.16065,12.821925 11.54916,-11.894569 23.07934,-23.879037 34.61975,-35.921636 -1.59883,-1.665937 -3.19746,-3.332985 -4.79583,-5.001062 m -7.20529,18.909713 c 4.07793,-4.152652 8.15631,-8.313345 12.23561,-12.481287 -11.52961,-11.8197 -23.05187,-23.697703 -34.5562,-35.6159731 -0.0404,4.261547 -0.0797,8.5203731 -0.11751,12.7767961 -1.155,-0.442893 -2.30988,-0.885985 -3.46465,-1.329269 m 3.80961,-10.3127525 c -0.0473,3.7245905 -0.0964,7.4583135 -0.14732,11.2003905 -11.51483,-4.301182 -23.04903,-8.5126654 -34.60491,-12.6618244 -0.0408,8.5868324 -0.092,17.2034814 -0.15429,25.8408894 m 0.2891,-17.786326 c 0.12018,20.541278 0.0783,41.143019 0.0118,61.829169 5.4346,-1.988683 10.86723,-3.970574 16.30103,-5.945126 m -16.78638,6.172489 c -0.002,0.424887 -0.004,0.849736 -0.006,1.274548 11.44312,-4.258318 22.92336,-8.547559 34.41779,-12.853124 0.0512,4.287004 0.10411,8.57201 0.15778,12.855645 9.49772,-9.726285 19.00298,-19.466291 28.48473,-29.200269 m -17.4113,17.243063 c 7.98289,-8.144427 15.94116,-16.275668 23.89163,-24.406266 -11.52651,-11.833577 -23.06953,-23.665794 -34.57715,-35.5353254 -0.0413,4.2742157 -0.0802,8.5459104 -0.1158,12.8144044 -0.26582,-0.101186 -0.53163,-0.202387 -0.79742,-0.303601"
       style="display:inline;opacity:0.98000004;fill:none;fill-opacity:1;fill-rule:nonzero;stroke:#30618c;stroke-width:1.5;stroke-linecap:round;stroke-miterlimit:4;stroke-dasharray:none;stroke-dashoffset:0;stroke-opacity:1" />
    <path
       style="display:inline;opacity:0.98000004;fill:none;fill-opacity:1;fill-rule:nonzero;stroke:#30618c;stroke-width:1.5;stroke-linecap:round;stroke-miterlimit:4;stroke-dasharray:none;stroke-dashoffset:0;stroke-opacity:1"
       d="m 359.52572,11.889866 c -0.036,2.120825 -0.0712,4.240256 -0.10562,6.358337 -11.54775,-4.288178 -23.07172,-8.6217315 -34.59628,-12.9924911 -0.028,12.3405481 -0.0566,24.6429841 -0.11111,36.9157791 m -0.67804,-18.875078 c 0.007,17.743984 0.005,35.337454 -0.001,52.856656 5.86922,-2.238995 11.73792,-4.48735 17.60631,-6.741655 m -13.3148,5.049874 c 10.49923,-3.929076 20.9719,-7.840725 31.43485,-11.744189 0.0572,4.290809 0.11294,8.58283 0.16821,12.875536 6.58898,-6.72409 13.17565,-13.444887 19.77011,-20.16794 m -12.9481,11.640461 c 8.81653,-9.025864 17.68721,-18.05923 26.59504,-27.089746 -11.48171,-11.776195 -22.90026,-23.547544 -34.2934,-35.2910924 -0.007,2.5264013 -0.0129,5.0534488 -0.0187,7.5812244 m 1.0201,2.861635 c -0.0173,1.15847 -0.0347,2.316381 -0.0521,3.473749 -11.53286,-4.25581 -23.06815,-8.572987 -34.62036,-12.9320085 -0.0669,14.7480895 -0.15847,29.4350745 -0.3004,44.0954045 m 0.49654,-22.63709 c 0.0471,15.98056 0.0276,31.953718 -0.0267,47.933712 8.92494,-3.331626 17.83742,-6.660798 26.74431,-9.984455 m -16.60629,7.295098 c 7.99614,-2.993213 16.01042,-5.997334 24.03585,-9.011441 0.0492,4.283762 0.10122,8.56502 0.15515,12.84389 8.42006,-8.63531 16.85521,-17.289382 25.28617,-25.959669 m -12.72368,12.322151 c 7.08278,-7.180285 14.13556,-14.360395 21.1712,-21.537654 C 384.27441,31.502406 374.9057,21.980971 365.5369,12.470821 m 11.02621,10.310357 c -5.62452,-5.821666 -11.26163,-11.630392 -16.90493,-17.4327879 -0.0429,4.2823151 -0.0875,8.5664109 -0.13292,12.8513009 -11.4779,-4.311582 -22.96215,-8.616669 -34.43032,-12.9383014 0.0142,6.0441264 0.0323,12.0842204 0.057,18.1175074 m 34.55639,-9.948615 c -0.0229,1.459178 -0.0451,2.919424 -0.0667,4.380695 -11.529,-4.335225 -23.01546,-8.5986294 -34.47659,-12.8147791 0.0483,16.6893851 0.14288,33.4651031 0.24116,50.2664931 m -0.10584,-25.166296 c 0.0337,15.289039 -0.013,30.608193 -0.11814,45.954943 11.25504,-4.190319 22.47344,-8.363356 33.66603,-12.520358 m -18.62564,6.980009 c 6.50568,-2.384911 13.00393,-4.796405 19.49724,-7.229722 0.056,4.284527 0.11018,8.560668 0.16302,12.829558 11.55201,-11.890049 23.0847,-23.887418 34.63177,-35.927527 -1.59791,-1.665592 -3.19555,-3.332002 -4.79282,-4.999058 M 382.189,53.411994 c 4.05556,-4.164921 8.12342,-8.32679 12.20205,-12.48593 -11.53149,-11.79474 -22.97634,-23.567545 -34.36925,-35.3258514 -0.0115,4.3031267 -0.0195,8.6072334 -0.0245,12.9121884 -1.14555,-0.428903 -2.29087,-0.857735 -3.43596,-1.286499 m 3.0799,-10.0169243 c -0.0452,3.7517813 -0.0893,7.5012513 -0.13222,11.2486703 -11.48869,-4.283677 -22.96487,-8.589371 -34.42821,-12.9079178 0.0232,8.4696708 0.0525,16.9331918 0.0881,25.3935958 M 324.75182,14.03166 c -0.0731,20.414325 -0.0639,40.934601 -0.0566,61.439483 5.45552,-2.040105 10.9109,-4.081449 16.3642,-6.126801 m -16.11531,4.662659 c 0.002,0.424768 0.003,0.84951 0.004,1.274229 11.53757,-4.26104 23.00729,-8.542546 34.42749,-12.83147 0.0252,4.292824 0.0444,8.58474 0.0583,12.876308 9.37193,-9.7012 18.69116,-19.405893 27.9825,-29.096426 M 371.05599,64.3628 c 7.92122,-8.149196 15.85567,-16.25617 23.79834,-24.335021 -11.53787,-11.758261 -23.05832,-23.45695 -34.57677,-35.139536 -0.0441,4.3228088 -0.0881,8.646706 -0.1322,12.970927 -0.008,-0.003 -0.79108,-0.289498 -0.79916,-0.292457"
       id="path6294"
       inkscape:connector-curvature="0"
       sodipodi:nodetypes="cccccccc"
       inkscape:path-effect="#path-effect6296"
       inkscape:original-d="m 359.61424,5.10898 -0.15613,12.87542 -34.49063,-12.87542 0,70.81115 34.49063,-12.87544 0.15613,12.87544 34.64689,-35.40558 z" />
  </g>
  <g
     inkscape:groupmode="layer"
     id="layer8"
     inkscape:label="hovered_fill"
     transform="translate(0,80)"
     style="display:inline" />
  <g
     inkscape:groupmode="layer"
     id="layer6"
     inkscape:label="hovered"
     transform="translate(0,80)"
     style="display:inline">
    <path
       inkscape:original-d="m 39.421839,-72.526395 -0.145549,12.00283 -32.15314,-12.00283 0,66.0121552 32.15314,-12.0028492 0.145549,12.0028492 32.298801,-33.0060822 z"
       inkscape:path-effect="#path-effect6310"
       sodipodi:nodetypes="cccccccc"
       inkscape:connector-curvature="0"
       id="path6308"
       d="m 39.708417,-65.056502 c -0.01248,1.819229 -0.02619,3.639269 -0.04104,5.46005 -10.672006,-4.037325 -21.388853,-8.045544 -32.1292978,-12.041251 -0.02691,13.549224 -0.08689,27.115983 -0.1446967,40.672749 M 7.2543761,-51.594768 c -0.035667,14.899884 -0.016056,29.834935 0.036777,44.7873774 8.4534548,-3.1302849 16.9189528,-6.2542654 25.3916808,-9.3758214 m -15.249671,6.089943 c 7.080561,-2.673624 14.18098,-5.348925 21.295173,-8.028258 0.04541,3.989691 0.09464,7.978264 0.146803,11.9653761 9.283073,-9.5198581 18.5983,-19.0557471 27.913401,-28.6201511 m -10.996299,12.255391 c 5.426694,-5.471369 10.837781,-10.953221 16.240093,-16.440601 -10.730621,-10.972004 -21.496326,-21.96611 -32.242515,-32.942704 -0.0433,4.007554 -0.08528,8.01629 -0.124979,12.026906 -4.298843,-1.597431 -8.594677,-3.192379 -12.886046,-4.783788 m 11.980422,1.168456 c -0.01358,0.860572 -0.02682,1.72121 -0.03973,2.581911 -10.750064,-4.033008 -21.441649,-8.055123 -32.0890879,-12.078509 0.097989,15.920586 0.2818087,31.838701 0.512599,47.721366 M 7.080925,-46.048231 c -0.049603,13.282017 -0.024894,26.479842 0.05076,39.6148136 C 17.914781,-10.522874 28.735927,-14.659275 39.58004,-18.828845 c 0.01954,0.830811 0.03921,1.661441 0.059,2.491897 m -15.001956,3.211779 c 4.68397,-1.754885 9.377882,-3.511136 14.080525,-5.268743 0.04935,3.998965 0.104246,7.997069 0.16408,11.994315 10.809808,-11.016277 21.692669,-22.04525 32.613615,-33.086668 -0.332729,-0.346207 -0.66542,-0.692425 -0.998075,-1.038656 m -9.097864,11.485016 c 3.576281,-3.647876 7.144642,-7.288881 10.705936,-10.923419 -10.774057,-10.979743 -21.612613,-21.900474 -32.492152,-32.773367 -0.05694,2.946792 -0.115359,5.895309 -0.175093,8.845473 m 4.202037,-4.315192 c -1.399574,-1.432343 -2.800149,-2.86581 -4.201653,-4.300355 -0.03942,4.005558 -0.08253,8.006852 -0.128739,12.004261 -10.711129,-4.011047 -21.44769,-8.053844 -32.1963866,-12.119504 -0.035924,13.189351 -0.088163,26.347967 -0.1359945,39.489703 M 39.558095,-64.589363 c -0.01706,1.182099 -0.03375,2.363938 -0.05007,3.545543 -10.737764,-3.942484 -21.440632,-7.90718 -32.1184836,-11.87147 0.061707,17.766431 0.1833626,35.533832 0.3283114,53.386104 M 7.1325841,-44.236881 c 0.074219,12.592887 0.093198,25.165156 0.088268,37.7258053 10.713226,-4.0104553 21.406651,-8.0305333 32.103886,-12.0534543 0.03498,3.377842 0.07029,6.755435 0.106554,10.1329556 M 29.241739,-15.651408 c 3.176635,-1.168076 6.34923,-2.339498 9.518373,-3.513944 0.06249,4.005947 0.12012,8.007631 0.173859,12.0055926 C 49.72033,-18.173283 60.449156,-29.241908 71.176266,-40.334939 66.088403,-45.558224 61.000159,-50.786921 55.917362,-56.017824 m 13.269992,18.31562 c 0.604598,-0.612881 1.209095,-1.225553 1.813499,-1.838016 -10.699768,-10.977202 -21.429465,-21.887085 -32.14414,-32.71815 -0.03511,4.045381 -0.0692,8.096087 -0.101482,12.15232 -7.099573,-2.556637 -14.192616,-5.093275 -21.273698,-7.608523 m 21.976616,-3.250847 c -0.05775,3.474315 -0.114019,6.947937 -0.169313,10.421516 -10.762123,-3.93635 -21.513561,-7.873175 -32.2727619,-11.786932 -0.034853,9.683979 -0.075184,19.384238 -0.1319308,29.114739 M 7.1653445,-60.160993 C 7.1778369,-42.421504 7.1322317,-24.621472 7.0402518,-6.8100838 14.999881,-9.7914244 22.948824,-12.770148 30.888379,-15.751696 M 13.41934,-8.8695923 c 8.545879,-3.1662237 17.113906,-6.3400197 25.699975,-9.5144787 0.05805,4.010847 0.119554,8.021567 0.184171,12.0327389 10.828209,-10.9627009 21.702476,-21.9187079 32.603192,-32.8350339 -1.397695,-1.435098 -2.794933,-2.869509 -4.191758,-4.30316 m -9.205928,17.844423 c 4.478217,-4.545165 8.950905,-9.105907 13.419729,-13.680517 -10.75286,-11.034847 -21.52821,-22.15038 -32.302723,-33.322573 -0.05066,3.956712 -0.101262,7.909595 -0.151399,11.859071 -6.240958,-2.414404 -12.480625,-4.838242 -18.717111,-7.269568"
       style="display:inline;opacity:0.98000004;fill:none;fill-opacity:1;fill-rule:nonzero;stroke:#8c3030;stroke-width:1.39834237;stroke-linecap:round;stroke-miterlimit:4;stroke-dasharray:none;stroke-dashoffset:0;stroke-opacity:1"
       inkscape:transform-center-x="0.30233683"
       inkscape:transform-center-y="0.44795186" />
    <path
       inkscape:transform-center-y="0.44795186"
       inkscape:transform-center-x="0.30233683"
       style="display:inline;opacity:0.98000004;fill:none;fill-opacity:1;fill-rule:nonzero;stroke:#8c3030;stroke-width:1.39834237;stroke-linecap:round;stroke-miterlimit:4;stroke-dasharray:none;stroke-dashoffset:0;stroke-opacity:1"
       d="m 119.42309,-66.017437 c -0.0202,1.819833 -0.0405,3.641422 -0.0611,5.464706 -10.7075,-4.021648 -21.421277,-7.976782 -32.136773,-11.880239 0.0026,13.658435 0.0028,27.389291 0.0082,41.167956 m 0.945037,-20.231259 c 0.01609,14.971929 0.02136,29.899112 0.02571,44.8067232 8.424269,-3.1572781 16.84821,-6.3216522 25.27398,-9.4876272 m -15.402097,5.882332 c 7.146077,-2.680372 14.279997,-5.340961 21.405797,-7.985189 0.0515,4.008171 0.1008,8.020878 0.14842,12.037621 9.26802,-9.421701 18.51781,-18.799108 27.77081,-28.150368 m -10.93798,11.899995 c 5.37293,-5.460539 10.74678,-10.933598 16.1197,-16.412521 -10.78938,-10.955102 -21.58248,-21.93365 -32.3941,-32.882441 -0.0603,4.01478 -0.12185,8.031571 -0.18492,12.051307 -4.3257,-1.58695 -8.6534,-3.17001 -12.9835,-4.747758 m 11.98329,1.244747 c -0.0133,0.866112 -0.0264,1.731987 -0.0393,2.59763 -10.74982,-3.967493 -21.460741,-7.975607 -32.146198,-12.010425 0.04497,15.904648 0.139462,31.757374 0.247078,47.595904 m -0.02571,-21.460673 c 0.0242,13.22373 0.04263,26.447798 0.06687,39.6653414 10.738657,-4.0180934 21.481648,-8.0410614 32.236438,-12.0733334 0.013,0.840938 0.026,1.681825 0.0391,2.52266 m -14.14873,3.609978 c 4.70418,-1.75911 9.4114,-3.513912 14.12179,-5.264672 0.0555,4.004424 0.11308,8.011418 0.17273,12.0208458 10.8091,-10.9694098 21.64925,-21.9027868 32.52488,-32.8078268 -0.33416,-0.341934 -0.66828,-0.683841 -1.00236,-1.02572 m -9.66421,11.345452 c 3.56172,-3.646449 7.12752,-7.294093 10.69725,-10.943254 -10.74857,-11.023933 -21.46128,-22.061716 -32.14207,-33.122252 -0.0192,2.911174 -0.0373,5.821527 -0.0542,8.731 m 3.91321,-5.453863 c -1.39467,-1.429509 -2.79059,-2.859605 -4.18764,-4.290207 -0.0306,4.013393 -0.0656,8.024779 -0.10412,12.034782 -10.68912,-3.975038 -21.406707,-7.961376 -32.129758,-11.944391 -0.0062,13.285184 -0.01973,26.574836 -0.0047,39.891748 m 32.569276,-31.081163 c -0.016,1.178794 -0.0318,2.357696 -0.0474,3.536718 -10.73061,-3.967613 -21.440865,-7.923853 -32.136828,-11.857652 0.03366,17.813636 0.10158,35.681047 0.181259,53.643283 M 86.47689,-44.588501 c -0.05299,12.508661 -0.03255,25.077832 0.03834,37.68053 10.782217,-3.972186 21.606203,-7.916606 32.454613,-11.853595 0.0797,3.403272 0.16156,6.807194 0.2451,10.2112395 m -9.78978,-7.0636225 c 3.15689,-1.180072 6.31474,-2.358951 9.47355,-3.536676 0.0502,4.002051 0.10181,8.005731 0.15471,12.010976 10.78312,-10.985501 21.58583,-21.947821 32.40704,-32.890484 -5.04355,-5.152487 -10.08301,-10.300616 -15.11847,-15.444756 m 14.28969,18.677347 c 0.59714,-0.613803 1.19426,-1.227617 1.79135,-1.841442 -10.83084,-11.001697 -21.6725,-22.006891 -32.56628,-33.014834 -0.0817,3.999404 -0.16685,7.998624 -0.25628,11.99767 -7.20828,-2.66542 -14.43194,-5.331465 -21.67595,-7.998043 m 21.56718,-2.622195 c -0.026,3.464273 -0.0553,6.926673 -0.0872,10.387537 -10.68484,-3.978458 -21.399465,-7.973759 -32.12549,-11.973656 -0.007,9.611616 -0.02202,19.219987 -0.03419,28.832374 m 0.225889,-17.580831 c -0.0017,17.776998 0.02069,35.536993 0.06498,53.2615498 8.025043,-3.0230218 16.055139,-6.0542088 24.090069,-9.0955998 m -17.408846,8.1378657 c 8.548436,-3.2120747 17.102976,-6.4340277 25.660156,-9.6692377 0.0454,3.984256 0.0913,7.965971 0.13744,11.9448639 10.75706,-11.0868849 21.51724,-22.2155569 32.26392,-33.4021529 -1.41795,-1.470633 -2.83613,-2.942266 -4.25459,-4.414937 m -9.69231,17.875393 c 4.46177,-4.529302 8.92411,-9.070927 13.3869,-13.621381 -10.7674,-10.976592 -21.53222,-22.004558 -32.29636,-33.034869 -0.048,3.99359 -0.0959,7.987022 -0.14379,11.981157 -6.23725,-2.340089 -12.47446,-4.678232 -18.7118,-7.01046"
       id="path6355"
       inkscape:connector-curvature="0"
       sodipodi:nodetypes="cccccccc"
       inkscape:path-effect="#path-effect6357"
       inkscape:original-d="m 119.73655,-72.526395 -0.14555,12.00283 -32.15313,-12.00283 0,66.0121552 32.15313,-12.0028492 0.14555,12.0028492 32.2988,-33.0060822 z" />
    <path
       inkscape:original-d="m 199.79328,-72.526395 -0.14555,12.00283 -32.15313,-12.00283 0,66.0121552 32.15313,-12.0028492 0.14555,12.0028492 32.29881,-33.0060822 z"
       inkscape:path-effect="#path-effect6363"
       sodipodi:nodetypes="cccccccc"
       inkscape:connector-curvature="0"
       id="path6361"
       d="m 199.76336,-65.046329 c -0.0299,1.822396 -0.0589,3.645139 -0.0872,5.46819 -10.75642,-4.023112 -21.48434,-8.034122 -32.20097,-12.042276 0.001,13.534493 0.0184,27.072989 0.0228,40.600149 m -0.0822,-20.718194 c -0.0238,14.972648 0.008,29.943138 0.081,44.9367 8.46571,-3.1055268 16.94651,-6.202689 25.43942,-9.285981 m -15.03447,5.446048 c 7.14821,-2.660074 14.28419,-5.310137 21.41224,-7.950479 0.0527,4.010217 0.10324,8.023128 0.15219,12.038691 9.27245,-9.42561 18.52772,-18.82212 27.7887,-28.191083 m -11.30509,12.284527 c 5.42056,-5.511041 10.82847,-11.010319 16.22944,-16.499227 -10.73329,-10.975068 -21.49434,-21.908679 -32.23757,-32.811983 -0.0425,4.026605 -0.0838,8.055256 -0.12317,12.08576 -4.29841,-1.57457 -8.59416,-3.146694 -12.88605,-4.716668 m 12.71477,0.574401 c -0.0149,0.864375 -0.0295,1.72878 -0.0438,2.593219 -10.76859,-3.983463 -21.48449,-7.961046 -32.16851,-11.926778 0.047,16.000981 0.15592,32.025003 0.27036,48.088253 m 0.35204,-21.68693 c 0.0124,13.216925 -8.9e-4,26.476147 -0.0336,39.7674903 10.68942,-3.9543133 21.36431,-7.8846343 32.0287,-11.7975313 0.006,0.849737 0.0125,1.699569 0.0187,2.549493 m -13.92789,3.765384 c 4.73122,-1.74478 9.45093,-3.499998 14.16114,-5.264969 0.0554,3.993093 0.10474,7.9799854 0.14905,11.9610239 10.7501,-11.0786289 21.42574,-22.2439039 32.08453,-33.4761109 -0.34095,-0.352192 -0.68192,-0.704449 -1.0229,-1.056771 m -9.63856,11.391569 c 3.56697,-3.661729 7.13405,-7.319042 10.70144,-10.973327 -10.75563,-11.03941 -21.50832,-22.051195 -32.25194,-33.073664 -0.0311,2.918396 -0.0619,5.836407 -0.0924,8.753771 m 3.8273,-4.463935 c -1.41003,-1.444112 -2.8198,-2.886794 -4.22936,-4.328124 -0.0555,3.99205 -0.11008,7.989457 -0.1642,11.991609 -10.73374,-3.997488 -21.46338,-7.956195 -32.19687,-11.890464 -0.0183,13.341697 -0.0418,26.716247 -0.0828,40.101291 m 32.3312,-32.000252 c -0.0147,1.172514 -0.0295,2.345552 -0.0444,3.519103 -10.72402,-4.020846 -21.45794,-7.993096 -32.2035,-11.927147 -0.0431,17.813247 -0.11412,35.718034 -0.21949,53.675791 m 0.45193,-25.701854 c -0.0483,12.641781 -0.0653,25.239955 -0.0716,37.824759 10.712,-3.988471 21.43287,-7.988014 32.14709,-11.975842 0.04,3.388231 0.0794,6.777487 0.11787,10.1683584 m -10.08265,-5.9366284 c 3.14631,-1.196495 6.29676,-2.388855 9.45102,-3.577627 0.0448,3.988934 0.095,7.982927 0.15001,11.9810616 10.79117,-11.0128576 21.65341,-21.9644106 32.55479,-32.9067936 -5.00582,-5.152354 -10.00296,-10.302675 -14.99475,-15.456405 m 13.45406,17.974697 c 0.59599,-0.610867 1.1922,-1.221901 1.78862,-1.833097 -10.84272,-10.954543 -21.61573,-21.960924 -32.37269,-32.984827 -0.0461,3.995257 -0.0911,7.989329 -0.13597,11.982821 -7.1235,-2.675986 -14.24649,-5.354074 -21.37544,-8.030117 m 21.78905,-2.111306 c -0.0461,3.469128 -0.0921,6.934898 -0.13825,10.397801 -10.73174,-3.971707 -21.46432,-7.974855 -32.20253,-11.991609 -0.0172,9.597455 -0.0384,19.185309 -0.0664,28.774136 m -0.0255,-16.846888 c -0.0534,17.88623 -0.0579,35.597361 -0.0597,53.2091093 8.00292,-3.0771716 16.00645,-6.1772433 24.00548,-9.2918393 m -17.91123,6.5154362 c 8.61697,-3.1709322 17.2111,-6.3443182 25.79423,-9.5143672 0.0568,4.012777 0.11142,8.026193 0.16495,12.0407343 10.78559,-10.9497383 21.55466,-21.8828263 32.36372,-32.7716103 -1.40975,-1.431479 -2.81881,-2.862193 -4.22705,-4.292077 m -9.50078,18.182883 c 4.49436,-4.557113 8.97677,-9.116748 13.45069,-13.678443 -10.74058,-11.003704 -21.53065,-22.019396 -32.3219,-33.04059 -0.055,3.99596 -0.1101,7.991548 -0.16443,11.986879 -6.24793,-2.338097 -12.49373,-4.676908 -18.7335,-7.015908"
       style="display:inline;opacity:0.98000004;fill:none;fill-opacity:1;fill-rule:nonzero;stroke:#8c3030;stroke-width:1.39834237;stroke-linecap:round;stroke-miterlimit:4;stroke-dasharray:none;stroke-dashoffset:0;stroke-opacity:1"
       inkscape:transform-center-x="0.30233683"
       inkscape:transform-center-y="0.44795186" />
    <path
       inkscape:transform-center-y="0.44795186"
       inkscape:transform-center-x="0.30233683"
       style="display:inline;opacity:0.98000004;fill:none;fill-opacity:1;fill-rule:nonzero;stroke:#8c3030;stroke-width:1.39834237;stroke-linecap:round;stroke-miterlimit:4;stroke-dasharray:none;stroke-dashoffset:0;stroke-opacity:1"
       d="m 279.48651,-66.050252 c -0.0125,1.819229 -0.0262,3.639269 -0.041,5.46005 -10.672,-4.037325 -21.38884,-8.045544 -32.12928,-12.041251 -0.0269,13.549227 -0.0869,27.11599 -0.1447,40.672758 m 0.51724,-18.881376 c -0.0357,14.89988 -0.0161,29.834929 0.0368,44.7873679 8.45346,-3.1302869 16.91896,-6.2542689 25.39169,-9.3758269 m -15.45124,4.838381 c 7.08056,-2.673622 14.18097,-5.348922 21.29516,-8.028253 0.0454,3.989691 0.0946,7.978264 0.1468,11.9653762 9.28308,-9.5198612 18.59831,-19.0557532 27.91342,-28.6201612 m -11.45099,12.667889 c 5.42669,-5.471364 10.83778,-10.953212 16.24009,-16.440589 -10.73062,-10.972004 -21.49633,-21.96611 -32.24253,-32.942704 -0.0433,4.007554 -0.0853,8.01629 -0.12497,12.026906 -4.29885,-1.597432 -8.59469,-3.192382 -12.88606,-4.783792 m 12.77731,1.35596 c -0.0136,0.860572 -0.0268,1.72121 -0.0397,2.581911 -10.75006,-4.033008 -21.44164,-8.055123 -32.08908,-12.078509 0.098,15.920589 0.28181,31.838707 0.5126,47.721376 m -0.0246,-20.349108 c -0.0496,13.282014 -0.0249,26.479836 0.0507,39.6148047 10.7831,-4.0894566 21.60424,-8.2258577 32.44835,-12.3954277 0.0195,0.830817 0.0392,1.661454 0.059,2.491916 m -14.64569,2.686755 c 4.68396,-1.754884 9.37787,-3.511133 14.08051,-5.268738 0.0493,3.998966 0.10424,7.997069 0.16408,11.9943151 10.80981,-11.0162771 21.69267,-22.0452501 32.61362,-33.0866681 -0.33273,-0.34621 -0.66543,-0.692431 -0.99808,-1.038665 m -9.7916,12.103764 c 3.57628,-3.647872 7.14464,-7.288873 10.70593,-10.923408 -10.77406,-10.979743 -21.61262,-21.900475 -32.49216,-32.773367 -0.0569,2.946794 -0.11536,5.895313 -0.1751,8.845479 m 5.16766,-4.910515 c -1.39957,-1.432342 -2.80014,-2.865808 -4.20165,-4.30035 -0.0394,4.005558 -0.0825,8.006851 -0.12874,12.004261 -10.71112,-4.011047 -21.44768,-8.053845 -32.19637,-12.119504 -0.0359,13.189356 -0.0882,26.347977 -0.136,39.489718 M 279.72057,-64.8378 c -0.0171,1.182098 -0.0337,2.363937 -0.0501,3.545542 -10.73776,-3.942484 -21.44063,-7.907179 -32.11847,-11.87147 0.0617,17.766435 0.18336,35.533839 0.32831,53.386114 m -0.3134,-23.849883 c 0.0742,12.592884 0.0932,25.16515 0.0883,37.7257964 10.71322,-4.0104552 21.40664,-8.0305334 32.10387,-12.0534544 0.035,3.377848 0.0703,6.755448 0.10656,10.1329743 m -9.99266,-6.9526703 c 3.17663,-1.168074 6.34922,-2.339494 9.51835,-3.513938 0.0625,4.005946 0.12012,8.007631 0.17386,12.0055921 10.78636,-11.0135241 21.51519,-22.0821481 32.24231,-33.1751791 -5.08787,-5.223288 -10.17612,-10.451987 -15.25892,-15.682892 m 13.33095,17.364054 c 0.6046,-0.612877 1.20909,-1.225546 1.81349,-1.838006 -10.69977,-10.977202 -21.42947,-21.887085 -32.14415,-32.71815 -0.0351,4.045381 -0.0692,8.096087 -0.10148,12.15232 -7.09958,-2.556638 -14.19262,-5.093277 -21.2737,-7.608528 m 21.92037,-3.803967 c -0.0577,3.474315 -0.11402,6.947937 -0.16932,10.421516 -10.76212,-3.93635 -21.51355,-7.873175 -32.27275,-11.786932 -0.0349,9.683982 -0.0752,19.384245 -0.13193,29.114748 m -0.43599,-15.665208 c 0.0125,17.739485 -0.0331,35.539515 -0.12509,53.3508997 7.95963,-2.9813425 15.90858,-5.9600687 23.84814,-8.9416187 m -17.34248,5.7571063 c 8.54587,-3.1662223 17.1139,-6.3400173 25.69996,-9.5144743 0.058,4.010846 0.11955,8.021566 0.18417,12.0327383 10.82821,-10.9627003 21.70248,-21.9187073 32.6032,-32.8350343 -1.3977,-1.4351 -2.79494,-2.869514 -4.19177,-4.303167 m -8.97622,19.274107 c 4.47821,-4.545161 8.9509,-9.1059 13.41972,-13.680506 -10.75286,-11.034847 -21.52822,-22.15038 -32.30273,-33.322573 -0.0507,3.956712 -0.10126,7.909595 -0.1514,11.859072 -6.24096,-2.414406 -12.48063,-4.838245 -18.71712,-7.269573"
       id="path6367"
       inkscape:connector-curvature="0"
       sodipodi:nodetypes="cccccccc"
       inkscape:path-effect="#path-effect6369"
       inkscape:original-d="m 279.86556,-72.526395 -0.14555,12.00283 -32.15313,-12.00283 0,66.0121552 32.15313,-12.0028492 0.14555,12.0028492 32.29881,-33.0060822 z" />
    <path
       inkscape:original-d="m 359.53089,-72.526395 -0.14555,12.00283 -32.15313,-12.00283 0,66.0121552 32.15313,-12.0028492 0.14555,12.0028492 32.29881,-33.0060822 z"
       inkscape:path-effect="#path-effect6375"
       sodipodi:nodetypes="cccccccc"
       inkscape:connector-curvature="0"
       id="path6373"
       d="m 359.50799,-65.572029 c -0.0313,1.837116 -0.0619,3.672595 -0.0917,5.506531 -10.76612,-3.954946 -21.5058,-7.970418 -32.23915,-12.023079 -0.0185,13.481803 -0.0282,26.911487 -0.0623,40.327768 m 0.28611,-19.477682 c -0.0895,14.925747 -0.0729,29.825716 -0.004,44.6974792 8.46319,-3.1788619 16.94537,-6.3679492 25.43479,-9.5677912 m -14.24892,6.4655612 c 7.11152,-2.6494112 14.21448,-5.3164782 21.30746,-7.9999022 0.0342,3.987535 0.0657,7.9705366 0.0942,11.9491938 9.2047,-9.5478718 18.37676,-19.1434218 27.50863,-28.7797588 m -11.01075,12.037163 c 5.35705,-5.470283 10.71386,-10.951624 16.06609,-16.43896 -10.83075,-10.971922 -21.67983,-21.967807 -32.58188,-32.947161 -0.0838,4.006837 -0.1712,8.01479 -0.26278,12.024571 -4.35847,-1.598392 -8.72248,-3.194367 -13.09295,-4.786847 m 12.15423,1.153274 c -0.0105,0.863565 -0.0209,1.727255 -0.031,2.59107 -10.71336,-3.991739 -21.39092,-7.961582 -32.03319,-11.907673 0.10518,16.028368 0.27896,32.102916 0.51995,48.228677 m -0.13872,-21.406806 c -0.0267,13.209449 -0.0241,26.40369 -0.004,39.5691322 10.73463,-4.0631212 21.48197,-8.1477522 32.2341,-12.2626652 0.0128,0.834846 0.0256,1.669527 0.0384,2.50404 m -14.0884,2.840687 c 4.68161,-1.771803 9.37056,-3.530956 14.06547,-5.278614 0.0432,4.006897 0.0902,8.021101 0.14024,12.0420277 10.77225,-10.9251747 21.59023,-21.7508597 32.41406,-32.5103837 -0.33578,-0.337371 -0.67155,-0.674676 -1.00732,-1.011917 m -8.99085,10.91445 c 3.54547,-3.668892 7.08973,-7.331076 10.63149,-10.988455 -10.83306,-11.048757 -21.68894,-22.053675 -32.60306,-33.067275 -0.0635,2.92008 -0.12911,5.839847 -0.19706,8.758942 m 3.42973,-4.671237 c -1.39571,-1.433279 -2.79304,-2.866028 -4.19188,-4.298209 -0.0341,4.010259 -0.0742,8.02277 -0.11932,12.037851 -10.70805,-3.960522 -21.45749,-7.900042 -32.2273,-11.81117 -0.0604,13.368528 -0.14819,26.775224 -0.2306,40.231602 m 33.32925,-31.835306 c -0.0199,1.17031 -0.0396,2.341191 -0.0592,3.512624 -10.76894,-4.041465 -21.51943,-8.030707 -32.27103,-11.986117 -0.0525,17.780183 -0.10757,35.641443 -0.23783,53.515561 m 0.28315,-25.336362 c 0.0459,12.579348 0.0146,25.17128 -0.0747,37.7791591 10.63643,-3.9674711 21.22484,-7.9217351 31.77976,-11.8602561 -0.007,3.402819 -0.0172,6.807015 -0.0298,10.212655 m -9.06927,-6.978881 c 3.14693,-1.161121 6.29307,-2.324592 9.43809,-3.489873 0.0339,4.016825 0.0661,8.031097 0.0963,12.0437175 10.69577,-10.9571285 21.36047,-21.9387015 31.96419,-32.8934305 -5.14597,-5.158166 -10.30546,-10.310381 -15.4816,-15.45129 m 13.85368,17.979136 c 0.60351,-0.611349 1.20694,-1.222648 1.81031,-1.833894 -10.71831,-10.955436 -21.4585,-21.893531 -32.18871,-32.785277 -0.0392,4.029608 -0.0776,8.062348 -0.11485,12.098728 -7.10899,-2.594402 -14.21351,-5.17563 -21.30971,-7.740178 m 21.82533,-3.068345 c -0.0514,3.433851 -0.10239,6.876046 -0.15317,10.325932 -10.74715,-4.014818 -21.49241,-7.945284 -32.24713,-11.815146 -0.0311,9.720857 -0.0689,19.484487 -0.12008,29.276809 m -0.46618,-17.165882 c 0.0201,17.691126 0.10372,35.519101 0.26827,53.3931266 8.08277,-2.951274 16.18417,-5.8919376 24.30612,-8.8320326 m -18.06726,6.7396658 c 8.55144,-3.1936428 17.1112,-6.3892968 25.6764,-9.5860798 0.0489,4.001075 0.0989,8.001933 0.14965,12.0026494 10.7749,-11.0029264 21.56165,-22.0079624 32.34643,-33.0109014 -1.41294,-1.446486 -2.82591,-2.892936 -4.23895,-4.33934 m -8.84859,17.576877 c 4.46446,-4.581633 8.93022,-9.157468 13.39746,-13.729751 -10.75669,-11.029245 -21.5048,-22.03782 -32.24188,-33.057232 -0.0409,3.996423 -0.0811,7.992115 -0.12051,11.986521 -6.22309,-2.339636 -12.444,-4.682832 -18.66252,-7.032139"
       style="display:inline;opacity:0.98000004;fill:none;fill-opacity:1;fill-rule:nonzero;stroke:#8c3030;stroke-width:1.39834237;stroke-linecap:round;stroke-miterlimit:4;stroke-dasharray:none;stroke-dashoffset:0;stroke-opacity:1"
       inkscape:transform-center-x="0.30233683"
       inkscape:transform-center-y="0.44795186" />
  </g>
</svg>
